<svg id="Layer_1" data-name="Layer 1" xmlns="http://www.w3.org/2000/svg" viewBox="0 0 635 137"><defs><style>.cls-1{fill:#5c5c5c;stroke:#5c5c5c;stroke-miterlimit:10;}</style></defs><title>tagline</title><path class="cls-1" d="M11.68,26.7q1.5,1.2,3,2.49A19.53,19.53,0,0,1,17.29,32a13.51,13.51,0,0,1,1.89,3.42,12,12,0,0,1,.72,4.3,8.51,8.51,0,0,1-.69,3.4,8.83,8.83,0,0,1-1.86,2.76,8.93,8.93,0,0,1-2.73,1.86,8.21,8.21,0,0,1-3.36.69,8.42,8.42,0,0,1-3.39-.69,8.7,8.7,0,0,1-4.62-4.62,8.42,8.42,0,0,1-.69-3.39h2a6.42,6.42,0,0,0,.54,2.61,6.77,6.77,0,0,0,3.57,3.57,6.42,6.42,0,0,0,2.61.54,6.21,6.21,0,0,0,2.58-.54,7,7,0,0,0,2.1-1.44,6.9,6.9,0,0,0,1.44-2.13,6.42,6.42,0,0,0,.54-2.61,10,10,0,0,0-.63-3.66,11.74,11.74,0,0,0-1.68-3,17.78,17.78,0,0,0-2.4-2.52q-1.35-1.17-2.79-2.31T7.57,25.91a18.65,18.65,0,0,1-2.52-2.67,13.07,13.07,0,0,1-1.8-3.18,10.85,10.85,0,0,1-.69-4,8.42,8.42,0,0,1,.69-3.39A8.7,8.7,0,0,1,7.87,8a8.42,8.42,0,0,1,3.39-.69A8.37,8.37,0,0,1,14.62,8a8.85,8.85,0,0,1,2.73,1.83,8.67,8.67,0,0,1,1.86,2.75A8.42,8.42,0,0,1,19.9,16h-2a6.21,6.21,0,0,0-.54-2.58,6.95,6.95,0,0,0-3.54-3.54,6.21,6.21,0,0,0-2.58-.54,6.42,6.42,0,0,0-2.61.54A6.9,6.9,0,0,0,6.52,11.3a7,7,0,0,0-1.44,2.1A6.21,6.21,0,0,0,4.54,16a9,9,0,0,0,.6,3.4,11.33,11.33,0,0,0,1.59,2.73A16.92,16.92,0,0,0,9,24.48C9.87,25.25,10.75,26,11.68,26.7Z"/><path class="cls-1" d="M26.74,18.1h2V47.74h-2V20.14h-2v-2Zm.48-6.84a1.5,1.5,0,1,1,0-3,1.49,1.49,0,0,1,1.05.42,1.52,1.52,0,0,1,0,2.16A1.51,1.51,0,0,1,27.22,11.26Z"/><path class="cls-1" d="M56.25,18.28a7.91,7.91,0,0,1,3.15.63,7.94,7.94,0,0,1,4.26,4.26,7.91,7.91,0,0,1,.63,3.15V48.16h-2V26.32A5.91,5.91,0,0,0,61.83,24a6,6,0,0,0-3.21-3.21,5.91,5.91,0,0,0-2.37-.48,5.7,5.7,0,0,0-2.34.48A6.61,6.61,0,0,0,52,22a5.94,5.94,0,0,0-1.8,4.29V48.16h-2V26.32A5.91,5.91,0,0,0,47.73,24a6,6,0,0,0-3.21-3.21,6.09,6.09,0,0,0-4.74,0A6,6,0,0,0,36.57,24a5.91,5.91,0,0,0-.48,2.37V48.16h-2V18.58h2V21a8.08,8.08,0,0,1,13.14,1.38,8,8,0,0,1,2.88-3A7.77,7.77,0,0,1,56.25,18.28Z"/><path class="cls-1" d="M77.13,18.28a7.91,7.91,0,0,1,3.15.63,7.94,7.94,0,0,1,4.26,4.26,7.91,7.91,0,0,1,.63,3.15v14.1a7.91,7.91,0,0,1-.63,3.15,7.94,7.94,0,0,1-4.26,4.26,7.91,7.91,0,0,1-3.15.63,7.65,7.65,0,0,1-3.36-.75,8.67,8.67,0,0,1-2.7-2V61.6h-2v-43h2V21a7.88,7.88,0,0,1,6.06-2.76Zm6.06,8A5.91,5.91,0,0,0,82.71,24a6,6,0,0,0-3.21-3.21,6.09,6.09,0,0,0-4.74,0A6,6,0,0,0,71.55,24a5.91,5.91,0,0,0-.48,2.37v14.1a5.91,5.91,0,0,0,.48,2.37A6,6,0,0,0,74.76,46a6.09,6.09,0,0,0,4.74,0,6,6,0,0,0,3.21-3.21,5.91,5.91,0,0,0,.48-2.37Z"/><path class="cls-1" d="M90,48.16v-43h2v43Z"/><path class="cls-1" d="M108.87,31.72q-.54.18-1.8.69t-2.73,1.05q-1.47.54-2.85,1.08t-2.16.78v5.1a5.91,5.91,0,0,0,.48,2.37A6,6,0,0,0,103,46a6.09,6.09,0,0,0,4.74,0A6,6,0,0,0,111,42.79a5.91,5.91,0,0,0,.48-2.37h2a7.91,7.91,0,0,1-.63,3.15,7.94,7.94,0,0,1-4.26,4.26,8.19,8.19,0,0,1-6.3,0A7.94,7.94,0,0,1,98,43.57a7.91,7.91,0,0,1-.63-3.15V26.32A7.91,7.91,0,0,1,98,23.17a7.94,7.94,0,0,1,4.26-4.26,8.19,8.19,0,0,1,6.3,0,7.94,7.94,0,0,1,4.26,4.26,7.76,7.76,0,0,1,.63,3.09v.06Q113.43,30,108.87,31.72Zm-3.48-11.46a5.91,5.91,0,0,0-2.37.48A6,6,0,0,0,99.81,24a5.91,5.91,0,0,0-.48,2.37v6.9l2.22-.87,2.64-1,2.43-.9,1.59-.6a8.65,8.65,0,0,0,2.16-1.26,2.8,2.8,0,0,0,1.08-2.34,5.7,5.7,0,0,0-.48-2.34A6.22,6.22,0,0,0,109.68,22a6.12,6.12,0,0,0-1.92-1.29A5.91,5.91,0,0,0,105.39,20.26Z"/><path class="cls-1" d="M122.52,47.44a6.63,6.63,0,0,1-.27,1.5,9.1,9.1,0,0,1-.78,1.83A9.58,9.58,0,0,1,120,52.72l-1.14-1.08A6.84,6.84,0,0,0,120.15,50a7.09,7.09,0,0,0,.6-1.53.42.42,0,0,0-.18,0,.42.42,0,0,1-.18,0,2,2,0,0,1-1.53-.66,2.18,2.18,0,0,1-.63-1.56,2.11,2.11,0,0,1,.63-1.5,2.1,2.1,0,0,1,3.06,0,2.11,2.11,0,0,1,.63,1.5v.18Q122.55,46.78,122.52,47.44Z"/><path class="cls-1" d="M145.23,7.6a8,8,0,0,1,3.33.69,9,9,0,0,1,2.7,1.86,8.51,8.51,0,0,1,1.83,2.73,8.38,8.38,0,0,1,.66,3.3v8.28a8.28,8.28,0,0,1-.63,3.24,8.42,8.42,0,0,1-1.74,2.64,9.24,9.24,0,0,1-2.58,1.86,8.46,8.46,0,0,1-3.15.84h-6.36V48.16h-2V7.6h7.92Zm6.54,8.58a6.07,6.07,0,0,0-.54-2.52,6.95,6.95,0,0,0-3.54-3.54,6.21,6.21,0,0,0-2.58-.54h-5.82V31.06h5.94a6.21,6.21,0,0,0,2.58-.54,6.63,6.63,0,0,0,2.07-1.44A6.94,6.94,0,0,0,151.26,27a6.31,6.31,0,0,0,.51-2.55Z"/><path class="cls-1" d="M165.39,48.46a7.91,7.91,0,0,1-3.15-.63A7.94,7.94,0,0,1,158,43.57a7.91,7.91,0,0,1-.63-3.15V26.32a7.91,7.91,0,0,1,.63-3.15,7.94,7.94,0,0,1,4.26-4.26,8.19,8.19,0,0,1,6.3,0,7.94,7.94,0,0,1,4.26,4.26,7.91,7.91,0,0,1,.63,3.15v14.1a7.91,7.91,0,0,1-.63,3.15,7.94,7.94,0,0,1-4.26,4.26A7.91,7.91,0,0,1,165.39,48.46Zm0-28.2a5.91,5.91,0,0,0-2.37.48A6,6,0,0,0,159.81,24a5.91,5.91,0,0,0-.48,2.37v14.1a5.91,5.91,0,0,0,.48,2.37A6,6,0,0,0,163,46a6.09,6.09,0,0,0,4.74,0A6,6,0,0,0,171,42.79a5.91,5.91,0,0,0,.48-2.37V26.32A5.91,5.91,0,0,0,171,24a6,6,0,0,0-3.21-3.21A5.91,5.91,0,0,0,165.39,20.26Z"/><path class="cls-1" d="M204.87,18.58l-6.72,29.58h-2.94l-4.26-24-4.26,24h-3L177,18.58h2l6.06,26.88,4.8-26.88h2l4.8,26.88,6.06-26.88Z"/><path class="cls-1" d="M219.39,31.72q-.54.18-1.8.69t-2.73,1.05q-1.47.54-2.85,1.08t-2.16.78v5.1a5.91,5.91,0,0,0,.48,2.37A6,6,0,0,0,213.54,46a6.09,6.09,0,0,0,4.74,0,6,6,0,0,0,3.21-3.21,5.91,5.91,0,0,0,.48-2.37h2a7.91,7.91,0,0,1-.63,3.15,7.94,7.94,0,0,1-4.26,4.26,8.19,8.19,0,0,1-6.3,0,7.94,7.94,0,0,1-4.26-4.26,7.91,7.91,0,0,1-.63-3.15V26.32a7.91,7.91,0,0,1,.63-3.15,7.94,7.94,0,0,1,4.26-4.26,8.19,8.19,0,0,1,6.3,0,7.94,7.94,0,0,1,4.26,4.26,7.76,7.76,0,0,1,.63,3.09v.06Q224,30,219.39,31.72Zm-3.48-11.46a5.91,5.91,0,0,0-2.37.48A6,6,0,0,0,210.33,24a5.91,5.91,0,0,0-.48,2.37v6.9l2.22-.87q1.32-.51,2.64-1l2.43-.9,1.59-.6a8.65,8.65,0,0,0,2.16-1.26A2.8,2.8,0,0,0,222,26.26a5.7,5.7,0,0,0-.48-2.34A6.22,6.22,0,0,0,220.2,22a6.12,6.12,0,0,0-1.92-1.29A5.91,5.91,0,0,0,215.91,20.26Z"/><path class="cls-1" d="M239.61,18.28v2h-2.34a5.7,5.7,0,0,0-2.34.48A6.61,6.61,0,0,0,233,22a5.94,5.94,0,0,0-1.8,4.29V48.16h-2V20.56h-2v-2h4V21a7.78,7.78,0,0,1,5.88-2.76Z"/><path class="cls-1" d="M252.75,20.56h-6.48V53.5a8.64,8.64,0,0,1-.57,3.15,8.4,8.4,0,0,1-1.56,2.58A7.26,7.26,0,0,1,241.83,61a6.46,6.46,0,0,1-2.82.63v-2a4.5,4.5,0,0,0,2-.48,5.55,5.55,0,0,0,1.68-1.29,6.11,6.11,0,0,0,1.14-1.92,6.64,6.64,0,0,0,.42-2.37V13.18a8.64,8.64,0,0,1,.57-3.15,8,8,0,0,1,1.56-2.55,7.47,7.47,0,0,1,2.31-1.71,6.46,6.46,0,0,1,2.82-.63v2a4.5,4.5,0,0,0-2,.48,5.34,5.34,0,0,0-1.68,1.32,6.6,6.6,0,0,0-1.14,1.92,6.4,6.4,0,0,0-.42,2.34v5.4h6.48Z"/><path class="cls-1" d="M270.63,18.58V48.16h-2V45.7a8.67,8.67,0,0,1-2.7,2,7.65,7.65,0,0,1-3.36.75,7.91,7.91,0,0,1-3.15-.63,7.94,7.94,0,0,1-4.26-4.26,7.91,7.91,0,0,1-.63-3.15V18.58h2V40.42a5.91,5.91,0,0,0,.48,2.37A6,6,0,0,0,260.22,46,6.09,6.09,0,0,0,265,46a6,6,0,0,0,3.21-3.21,5.91,5.91,0,0,0,.48-2.37V18.58Z"/><path class="cls-1" d="M275.73,48.16v-43h2v43Z"/><path class="cls-1" d="M287.4,47.44a6.63,6.63,0,0,1-.27,1.5,9.1,9.1,0,0,1-.78,1.83,9.58,9.58,0,0,1-1.44,1.95l-1.14-1.08A6.84,6.84,0,0,0,285,50a7.09,7.09,0,0,0,.6-1.53.42.42,0,0,0-.18,0,.42.42,0,0,1-.18,0,2,2,0,0,1-1.53-.66,2.18,2.18,0,0,1-.63-1.56,2.11,2.11,0,0,1,.63-1.5,2.1,2.1,0,0,1,3.06,0,2.11,2.11,0,0,1,.63,1.5v.18Q287.43,46.78,287.4,47.44Z"/><path class="cls-1" d="M304.17,9.58V24.94h11.34v2H304.17V48.16h-2V7.6H318v2Z"/><path class="cls-1" d="M321.57,48.16v-43h2v43Z"/><path class="cls-1" d="M340.47,31.72q-.54.18-1.8.69t-2.73,1.05q-1.47.54-2.85,1.08t-2.16.78v5.1a5.91,5.91,0,0,0,.48,2.37A6,6,0,0,0,334.62,46a6.09,6.09,0,0,0,4.74,0,6,6,0,0,0,3.21-3.21,5.91,5.91,0,0,0,.48-2.37h2a7.91,7.91,0,0,1-.63,3.15,7.94,7.94,0,0,1-4.26,4.26,8.19,8.19,0,0,1-6.3,0,7.94,7.94,0,0,1-4.26-4.26,7.91,7.91,0,0,1-.63-3.15V26.32a7.91,7.91,0,0,1,.63-3.15,7.94,7.94,0,0,1,4.26-4.26,8.19,8.19,0,0,1,6.3,0,7.94,7.94,0,0,1,4.26,4.26,7.76,7.76,0,0,1,.63,3.09v.06Q345,30,340.47,31.72ZM337,20.26a5.91,5.91,0,0,0-2.37.48A6,6,0,0,0,331.41,24a5.91,5.91,0,0,0-.48,2.37v6.9l2.22-.87q1.32-.51,2.64-1l2.43-.9,1.59-.6A8.65,8.65,0,0,0,342,28.6a2.8,2.8,0,0,0,1.08-2.34,5.7,5.7,0,0,0-.48-2.34A6.22,6.22,0,0,0,341.28,22a6.12,6.12,0,0,0-1.92-1.29A5.91,5.91,0,0,0,337,20.26Z"/><path class="cls-1" d="M356.07,33.1l-7.2-14.52h2.22l6.12,12.24,6.06-12.24h2.22l-7.2,14.52,7.5,15.06h-2.28l-6.3-12.84-6.36,12.84h-2.22Z"/><path class="cls-1" d="M370.83,18.1h2V47.74h-2V20.14h-2v-2Zm.48-6.84a1.5,1.5,0,1,1,0-3,1.49,1.49,0,0,1,1.05.42,1.52,1.52,0,0,1,0,2.16A1.49,1.49,0,0,1,371.31,11.26Z"/><path class="cls-1" d="M385.65,18.28a7.91,7.91,0,0,1,3.15.63,7.94,7.94,0,0,1,4.26,4.26,7.91,7.91,0,0,1,.63,3.15v14.1a7.91,7.91,0,0,1-.63,3.15,7.94,7.94,0,0,1-4.26,4.26,7.91,7.91,0,0,1-3.15.63,7.65,7.65,0,0,1-3.36-.75,8.67,8.67,0,0,1-2.7-2v2.46h-2v-43h2V21a7.88,7.88,0,0,1,6.06-2.76Zm6.06,8a5.91,5.91,0,0,0-.48-2.37A6,6,0,0,0,388,20.74a6.09,6.09,0,0,0-4.74,0A6,6,0,0,0,380.07,24a5.91,5.91,0,0,0-.48,2.37v14.1a5.91,5.91,0,0,0,.48,2.37A6,6,0,0,0,383.28,46,6.09,6.09,0,0,0,388,46a6,6,0,0,0,3.21-3.21,5.91,5.91,0,0,0,.48-2.37Z"/><path class="cls-1" d="M398.49,48.16v-43h2v43Z"/><path class="cls-1" d="M417.39,31.72q-.54.18-1.8.69t-2.73,1.05q-1.47.54-2.85,1.08t-2.16.78v5.1a5.91,5.91,0,0,0,.48,2.37A6,6,0,0,0,411.54,46a6.09,6.09,0,0,0,4.74,0,6,6,0,0,0,3.21-3.21,5.91,5.91,0,0,0,.48-2.37h2a7.91,7.91,0,0,1-.63,3.15,7.94,7.94,0,0,1-4.26,4.26,8.19,8.19,0,0,1-6.3,0,7.94,7.94,0,0,1-4.26-4.26,7.91,7.91,0,0,1-.63-3.15V26.32a7.91,7.91,0,0,1,.63-3.15,7.94,7.94,0,0,1,4.26-4.26,8.19,8.19,0,0,1,6.3,0,7.94,7.94,0,0,1,4.26,4.26,7.76,7.76,0,0,1,.63,3.09v.06Q422,30,417.39,31.72Zm-3.48-11.46a5.91,5.91,0,0,0-2.37.48A6,6,0,0,0,408.33,24a5.91,5.91,0,0,0-.48,2.37v6.9l2.22-.87q1.32-.51,2.64-1l2.43-.9,1.59-.6a8.65,8.65,0,0,0,2.16-1.26A2.8,2.8,0,0,0,420,26.26a5.7,5.7,0,0,0-.48-2.34A6.22,6.22,0,0,0,418.2,22a6.12,6.12,0,0,0-1.92-1.29A5.91,5.91,0,0,0,413.91,20.26Z"/><path class="cls-1" d="M460.29,41.62q1.56,2.46,2.64,4.2l1.44,2.34H462q-.48-.84-1.23-2t-1.65-2.61q-3.58,4.92-10.78,4.92a11.3,11.3,0,0,1-4.58-.93A12,12,0,0,1,440.08,45a11.79,11.79,0,0,1-2.51-3.72,11.34,11.34,0,0,1-.93-4.59,10.1,10.1,0,0,1,.87-4.32,12.31,12.31,0,0,1,2.28-3.33,19.17,19.17,0,0,1,3.15-2.64q1.74-1.17,3.48-2.25a.7.7,0,0,0,.18-.12.7.7,0,0,1,.18-.12l-1.68-2.67-.84-1.35a14.49,14.49,0,0,1-1.44-2.67,7.76,7.76,0,0,1-.42-2.73,6.89,6.89,0,0,1,.57-2.76,7.25,7.25,0,0,1,1.53-2.28,7.35,7.35,0,0,1,2.25-1.53,6.82,6.82,0,0,1,5.46,0,7.35,7.35,0,0,1,2.25,1.53A7.25,7.25,0,0,1,456,11.74a6.89,6.89,0,0,1,.57,2.76,9,9,0,0,1-.57,3.27,10.08,10.08,0,0,1-1.53,2.67,13,13,0,0,1-2.25,2.19q-1.29,1-2.67,1.89L451.73,28q1.17,1.89,2.43,3.87t2.48,4q1.22,2,2.39,3.78a29.6,29.6,0,0,0,1.73-11.16h2Q462.76,36.82,460.29,41.62Zm-11.88,4.86q6.6,0,9.6-4.8-1.2-1.86-2.52-4l-2.67-4.23-2.61-4.14-2.34-3.75-.21.12-.21.12L444.18,28a17.05,17.05,0,0,0-2.82,2.31,10.57,10.57,0,0,0-2,2.82,8.21,8.21,0,0,0-.75,3.6,9.34,9.34,0,0,0,.78,3.81,10,10,0,0,0,5.19,5.19A9.34,9.34,0,0,0,448.41,46.48Zm-2.52-27.72q.24.3.9,1.35l1.68,2.67a22.72,22.72,0,0,0,4.32-3.54,6.75,6.75,0,0,0,1.8-4.8,5.1,5.1,0,0,0-10.2,0,6.16,6.16,0,0,0,.3,2A12.31,12.31,0,0,0,445.89,18.76Z"/><path class="cls-1" d="M494.91,9.58h-8.1V48.16h-2V9.58h-8.1v-2h18.18Z"/><path class="cls-1" d="M506,18.28a7.91,7.91,0,0,1,3.15.63,7.94,7.94,0,0,1,4.26,4.26,7.91,7.91,0,0,1,.63,3.15V48.16h-2V26.32a5.91,5.91,0,0,0-.48-2.37,6,6,0,0,0-3.21-3.21,6.09,6.09,0,0,0-4.74,0A6,6,0,0,0,500.37,24a5.91,5.91,0,0,0-.48,2.37V48.16h-2v-43h2V21A7.88,7.88,0,0,1,506,18.28Z"/><path class="cls-1" d="M531.15,18.28v2h-2.34a5.7,5.7,0,0,0-2.34.48A6.61,6.61,0,0,0,524.55,22a5.94,5.94,0,0,0-1.8,4.29V48.16h-2V20.56h-2v-2h4V21a7.78,7.78,0,0,1,5.88-2.76Z"/><path class="cls-1" d="M544.77,31.72q-.54.18-1.8.69t-2.73,1.05q-1.47.54-2.85,1.08t-2.16.78v5.1a5.91,5.91,0,0,0,.48,2.37A6,6,0,0,0,538.92,46a6.09,6.09,0,0,0,4.74,0,6,6,0,0,0,3.21-3.21,5.91,5.91,0,0,0,.48-2.37h2a7.91,7.91,0,0,1-.63,3.15,7.94,7.94,0,0,1-4.26,4.26,8.19,8.19,0,0,1-6.3,0,7.94,7.94,0,0,1-4.26-4.26,7.91,7.91,0,0,1-.63-3.15V26.32a7.91,7.91,0,0,1,.63-3.15,7.94,7.94,0,0,1,4.26-4.26,8.19,8.19,0,0,1,6.3,0,7.94,7.94,0,0,1,4.26,4.26,7.76,7.76,0,0,1,.63,3.09v.06Q549.33,30,544.77,31.72Zm-3.48-11.46a5.91,5.91,0,0,0-2.37.48A6,6,0,0,0,535.71,24a5.91,5.91,0,0,0-.48,2.37v6.9l2.22-.87q1.32-.51,2.64-1l2.43-.9,1.59-.6a8.65,8.65,0,0,0,2.16-1.26,2.8,2.8,0,0,0,1.08-2.34,5.7,5.7,0,0,0-.48-2.34A6.22,6.22,0,0,0,545.58,22a6.12,6.12,0,0,0-1.92-1.29A5.91,5.91,0,0,0,541.29,20.26Z"/><path class="cls-1" d="M561.75,18.28a7.22,7.22,0,0,1,5.43,2.34,8,8,0,0,1,1.56,2.55,8.64,8.64,0,0,1,.57,3.15V48.16h-2V45.7a8.67,8.67,0,0,1-2.7,2,7.65,7.65,0,0,1-3.36.75,7.91,7.91,0,0,1-3.15-.63,7.94,7.94,0,0,1-4.26-4.26,7.91,7.91,0,0,1-.63-3.15V38.74q0-3.72,4.56-5.4.54-.24,1.83-.72l2.76-1,2.85-1.08q1.38-.51,2.1-.81V26.32A6.34,6.34,0,0,0,565.8,22a5.09,5.09,0,0,0-4-1.77,5.7,5.7,0,0,0-2.34.48A6.61,6.61,0,0,0,557.49,22a5.94,5.94,0,0,0-1.8,4.29h-2a7.91,7.91,0,0,1,.63-3.15,7.94,7.94,0,0,1,4.26-4.26A7.91,7.91,0,0,1,561.75,18.28Zm5.58,15.06v-1.5q-.9.36-2.22.84t-2.64,1l-2.4.93-1.56.6a8.29,8.29,0,0,0-2.22,1.26,2.73,2.73,0,0,0-1.08,2.28v1.68a5.91,5.91,0,0,0,.48,2.37A6,6,0,0,0,558.9,46a6.09,6.09,0,0,0,4.74,0,6,6,0,0,0,3.21-3.21,5.91,5.91,0,0,0,.48-2.37V33.34Z"/><path class="cls-1" d="M590.19,5.14v43h-2V45.7a8.67,8.67,0,0,1-2.7,2,7.65,7.65,0,0,1-3.36.75,7.91,7.91,0,0,1-3.15-.63,7.94,7.94,0,0,1-4.26-4.26,7.91,7.91,0,0,1-.63-3.15V26.32a7.91,7.91,0,0,1,.63-3.15A7.94,7.94,0,0,1,579,18.91,8,8,0,0,1,588.21,21V5.14Zm-8,41.34a5.91,5.91,0,0,0,2.37-.48,6,6,0,0,0,3.21-3.21,5.91,5.91,0,0,0,.48-2.37V26.32a5.91,5.91,0,0,0-.48-2.37,6,6,0,0,0-3.21-3.21,6.09,6.09,0,0,0-4.74,0A6,6,0,0,0,576.57,24a5.91,5.91,0,0,0-.48,2.37v14.1a5.91,5.91,0,0,0,.48,2.37A6,6,0,0,0,579.78,46,5.91,5.91,0,0,0,582.15,46.48Z"/><path class="cls-1" d="M606.81,31.72q-.54.18-1.8.69t-2.73,1.05q-1.47.54-2.85,1.08t-2.16.78v5.1a5.91,5.91,0,0,0,.48,2.37A6,6,0,0,0,601,46a6.09,6.09,0,0,0,4.74,0,6,6,0,0,0,3.21-3.21,5.91,5.91,0,0,0,.48-2.37h2a7.91,7.91,0,0,1-.63,3.15,7.94,7.94,0,0,1-4.26,4.26,8.19,8.19,0,0,1-6.3,0,7.94,7.94,0,0,1-4.26-4.26,7.91,7.91,0,0,1-.63-3.15V26.32a7.91,7.91,0,0,1,.63-3.15,7.94,7.94,0,0,1,4.26-4.26,8.19,8.19,0,0,1,6.3,0,7.94,7.94,0,0,1,4.26,4.26,7.76,7.76,0,0,1,.63,3.09v.06Q611.37,30,606.81,31.72Zm-3.48-11.46a5.91,5.91,0,0,0-2.37.48A6,6,0,0,0,597.75,24a5.91,5.91,0,0,0-.48,2.37v6.9l2.22-.87q1.32-.51,2.64-1l2.43-.9,1.59-.6a8.65,8.65,0,0,0,2.16-1.26,2.8,2.8,0,0,0,1.08-2.34,5.7,5.7,0,0,0-.48-2.34A6.22,6.22,0,0,0,607.62,22a6.12,6.12,0,0,0-1.92-1.29A5.91,5.91,0,0,0,603.33,20.26Z"/><path class="cls-1" d="M632.25,5.14v43h-2V45.7a8.67,8.67,0,0,1-2.7,2,7.65,7.65,0,0,1-3.36.75,7.91,7.91,0,0,1-3.15-.63,7.94,7.94,0,0,1-4.26-4.26,7.91,7.91,0,0,1-.63-3.15V26.32a7.91,7.91,0,0,1,.63-3.15,7.94,7.94,0,0,1,4.26-4.26A8,8,0,0,1,630.27,21V5.14Zm-8,41.34a5.91,5.91,0,0,0,2.37-.48,6,6,0,0,0,3.21-3.21,5.91,5.91,0,0,0,.48-2.37V26.32a5.91,5.91,0,0,0-.48-2.37,6,6,0,0,0-3.21-3.21,6.09,6.09,0,0,0-4.74,0A6,6,0,0,0,618.63,24a5.91,5.91,0,0,0-.48,2.37v14.1a5.91,5.91,0,0,0,.48,2.37A6,6,0,0,0,621.84,46,5.91,5.91,0,0,0,624.21,46.48Z"/><path class="cls-1" d="M53.43,79.6a8,8,0,0,1,3.33.69,9,9,0,0,1,2.7,1.86,8.51,8.51,0,0,1,1.83,2.73,8.38,8.38,0,0,1,.66,3.3v8.28a8.28,8.28,0,0,1-.63,3.24,8.42,8.42,0,0,1-1.74,2.64A9.24,9.24,0,0,1,57,104.2a8.46,8.46,0,0,1-3.15.84H47.49v15.12h-2V79.6h7.92ZM60,88.18a6.07,6.07,0,0,0-.54-2.52,6.95,6.95,0,0,0-3.54-3.54,6.21,6.21,0,0,0-2.58-.54H47.49v21.48h5.94a6.21,6.21,0,0,0,2.58-.54,6.63,6.63,0,0,0,2.07-1.44A6.94,6.94,0,0,0,59.46,99,6.31,6.31,0,0,0,60,96.46Z"/><path class="cls-1" d="M82.83,90.58l-10.5,43h-2l3.12-13L65,90.58h2l7.38,26.16,6.42-26.16Z"/><path class="cls-1" d="M87.81,105.34v7.08a6.64,6.64,0,0,0,.42,2.37,6.11,6.11,0,0,0,1.14,1.92A5.55,5.55,0,0,0,91.05,118a4.5,4.5,0,0,0,2,.48v2a6.46,6.46,0,0,1-2.82-.63A7.47,7.47,0,0,1,88,118.12a8,8,0,0,1-1.56-2.55,8.64,8.64,0,0,1-.57-3.15V82.18h2v8.4h6.48v2H87.81Z"/><path class="cls-1" d="M105.93,90.28a7.91,7.91,0,0,1,3.15.63,7.94,7.94,0,0,1,4.26,4.26,7.91,7.91,0,0,1,.63,3.15v21.84h-2V98.32a5.91,5.91,0,0,0-.48-2.37,6,6,0,0,0-3.21-3.21,6.09,6.09,0,0,0-4.74,0A6,6,0,0,0,100.35,96a5.91,5.91,0,0,0-.48,2.37v21.84h-2v-43h2V93a7.88,7.88,0,0,1,6.06-2.76Z"/><path class="cls-1" d="M126.81,120.46a7.91,7.91,0,0,1-3.15-.63,7.94,7.94,0,0,1-4.26-4.26,7.91,7.91,0,0,1-.63-3.15V98.32a7.91,7.91,0,0,1,.63-3.15,7.94,7.94,0,0,1,4.26-4.26,8.19,8.19,0,0,1,6.3,0,7.94,7.94,0,0,1,4.26,4.26,7.91,7.91,0,0,1,.63,3.15v14.1a7.91,7.91,0,0,1-.63,3.15,7.94,7.94,0,0,1-4.26,4.26A7.91,7.91,0,0,1,126.81,120.46Zm0-28.2a5.91,5.91,0,0,0-2.37.48A6,6,0,0,0,121.23,96a5.91,5.91,0,0,0-.48,2.37v14.1a5.91,5.91,0,0,0,.48,2.37,6,6,0,0,0,3.21,3.21,6.09,6.09,0,0,0,4.74,0,6,6,0,0,0,3.21-3.21,5.91,5.91,0,0,0,.48-2.37V98.32a5.91,5.91,0,0,0-.48-2.37,6,6,0,0,0-3.21-3.21A5.91,5.91,0,0,0,126.81,92.26Z"/><path class="cls-1" d="M147.69,90.28a7.91,7.91,0,0,1,3.15.63,7.94,7.94,0,0,1,4.26,4.26,7.91,7.91,0,0,1,.63,3.15v21.84h-2V98.32a5.91,5.91,0,0,0-.48-2.37,6,6,0,0,0-3.21-3.21,6.09,6.09,0,0,0-4.74,0A6,6,0,0,0,142.11,96a5.91,5.91,0,0,0-.48,2.37v21.84h-2V90.58h2V93a7.88,7.88,0,0,1,6.06-2.76Z"/><path class="cls-1" d="M190.65,79.6l-8.82,40.56h-2.64L170.43,79.6h2l8,37.26,8.1-37.26Z"/><path class="cls-1" d="M196.29,90.1h2v29.64h-2V92.14h-2v-2Zm.48-6.84a1.5,1.5,0,1,1,0-3,1.49,1.49,0,0,1,1,.42,1.52,1.52,0,0,1,0,2.16A1.49,1.49,0,0,1,196.77,83.26Z"/><path class="cls-1" d="M219.15,77.14v43h-2V117.7a8.67,8.67,0,0,1-2.7,2,7.65,7.65,0,0,1-3.36.75,7.91,7.91,0,0,1-3.15-.63,7.94,7.94,0,0,1-4.26-4.26,7.91,7.91,0,0,1-.63-3.15V98.32a7.91,7.91,0,0,1,.63-3.15A7.94,7.94,0,0,1,208,90.91,8,8,0,0,1,217.17,93V77.14Zm-8,41.34a5.91,5.91,0,0,0,2.37-.48,6,6,0,0,0,3.21-3.21,5.91,5.91,0,0,0,.48-2.37V98.32a5.91,5.91,0,0,0-.48-2.37,6,6,0,0,0-3.21-3.21,6.09,6.09,0,0,0-4.74,0A6,6,0,0,0,205.53,96a5.91,5.91,0,0,0-.48,2.37v14.1a5.91,5.91,0,0,0,.48,2.37,6,6,0,0,0,3.21,3.21A5.91,5.91,0,0,0,211.11,118.48Z"/><path class="cls-1" d="M235.77,103.72q-.54.18-1.8.69t-2.73,1q-1.47.54-2.85,1.08t-2.16.78v5.1a5.91,5.91,0,0,0,.48,2.37,6,6,0,0,0,3.21,3.21,6.09,6.09,0,0,0,4.74,0,6,6,0,0,0,3.21-3.21,5.91,5.91,0,0,0,.48-2.37h2a7.91,7.91,0,0,1-.63,3.15,7.94,7.94,0,0,1-4.26,4.26,8.19,8.19,0,0,1-6.3,0,7.94,7.94,0,0,1-4.26-4.26,7.91,7.91,0,0,1-.63-3.15V98.32a7.91,7.91,0,0,1,.63-3.15,7.94,7.94,0,0,1,4.26-4.26,8.19,8.19,0,0,1,6.3,0,7.94,7.94,0,0,1,4.26,4.26,7.76,7.76,0,0,1,.63,3.09v.06Q240.33,102,235.77,103.72Zm-3.48-11.46a5.91,5.91,0,0,0-2.37.48A6,6,0,0,0,226.71,96a5.91,5.91,0,0,0-.48,2.37v6.9l2.22-.87,2.64-1,2.43-.9,1.59-.6a8.65,8.65,0,0,0,2.16-1.26,2.8,2.8,0,0,0,1.08-2.34,5.7,5.7,0,0,0-.48-2.34A6.22,6.22,0,0,0,236.58,94a6.12,6.12,0,0,0-1.92-1.29A5.91,5.91,0,0,0,232.29,92.26Z"/><path class="cls-1" d="M253.17,120.46a7.91,7.91,0,0,1-3.15-.63,7.94,7.94,0,0,1-4.26-4.26,7.91,7.91,0,0,1-.63-3.15V98.32a7.91,7.91,0,0,1,.63-3.15A7.94,7.94,0,0,1,250,90.91a8.19,8.19,0,0,1,6.3,0,7.94,7.94,0,0,1,4.26,4.26,7.91,7.91,0,0,1,.63,3.15v14.1a7.91,7.91,0,0,1-.63,3.15,7.94,7.94,0,0,1-4.26,4.26A7.91,7.91,0,0,1,253.17,120.46Zm0-28.2a5.91,5.91,0,0,0-2.37.48A6,6,0,0,0,247.59,96a5.91,5.91,0,0,0-.48,2.37v14.1a5.91,5.91,0,0,0,.48,2.37A6,6,0,0,0,250.8,118a6.09,6.09,0,0,0,4.74,0,6,6,0,0,0,3.21-3.21,5.91,5.91,0,0,0,.48-2.37V98.32a5.91,5.91,0,0,0-.48-2.37,6,6,0,0,0-3.21-3.21A5.91,5.91,0,0,0,253.17,92.26Z"/><path class="cls-1" d="M283.83,79.6a8,8,0,0,1,3.33.69,9,9,0,0,1,2.7,1.86,8.51,8.51,0,0,1,1.83,2.73,8.38,8.38,0,0,1,.66,3.3v8.28a8.28,8.28,0,0,1-.63,3.24,8.42,8.42,0,0,1-1.74,2.64,9.24,9.24,0,0,1-2.58,1.86,8.46,8.46,0,0,1-3.15.84h-6.36v15.12h-2V79.6h7.92Zm6.54,8.58a6.07,6.07,0,0,0-.54-2.52,6.95,6.95,0,0,0-3.54-3.54,6.21,6.21,0,0,0-2.58-.54h-5.82v21.48h5.94a6.21,6.21,0,0,0,2.58-.54,6.63,6.63,0,0,0,2.07-1.44A6.94,6.94,0,0,0,289.86,99a6.31,6.31,0,0,0,.51-2.55Z"/><path class="cls-1" d="M309.51,90.28v2h-2.34a5.7,5.7,0,0,0-2.34.48A6.61,6.61,0,0,0,302.91,94a5.94,5.94,0,0,0-1.8,4.29v21.84h-2V92.56h-2v-2h4V93A7.78,7.78,0,0,1,307,90.28Z"/><path class="cls-1" d="M320.55,120.46a7.91,7.91,0,0,1-3.15-.63,7.94,7.94,0,0,1-4.26-4.26,7.91,7.91,0,0,1-.63-3.15V98.32a7.91,7.91,0,0,1,.63-3.15,7.94,7.94,0,0,1,4.26-4.26,8.19,8.19,0,0,1,6.3,0A7.94,7.94,0,0,1,328,95.17a7.91,7.91,0,0,1,.63,3.15v14.1a7.91,7.91,0,0,1-.63,3.15,7.94,7.94,0,0,1-4.26,4.26A7.91,7.91,0,0,1,320.55,120.46Zm0-28.2a5.91,5.91,0,0,0-2.37.48A6,6,0,0,0,315,96a5.91,5.91,0,0,0-.48,2.37v14.1a5.91,5.91,0,0,0,.48,2.37,6,6,0,0,0,3.21,3.21,6.09,6.09,0,0,0,4.74,0,6,6,0,0,0,3.21-3.21,5.91,5.91,0,0,0,.48-2.37V98.32a5.91,5.91,0,0,0-.48-2.37,6,6,0,0,0-3.21-3.21A5.91,5.91,0,0,0,320.55,92.26Z"/><path class="cls-1" d="M341.43,118.48a5.91,5.91,0,0,0,2.37-.48,6,6,0,0,0,3.21-3.21,5.91,5.91,0,0,0,.48-2.37h2a7.91,7.91,0,0,1-.63,3.15,7.94,7.94,0,0,1-4.26,4.26,8.19,8.19,0,0,1-6.3,0,7.94,7.94,0,0,1-4.26-4.26,7.91,7.91,0,0,1-.63-3.15V98.32a7.91,7.91,0,0,1,.63-3.15,7.94,7.94,0,0,1,4.26-4.26,8.19,8.19,0,0,1,6.3,0,7.94,7.94,0,0,1,4.26,4.26,7.91,7.91,0,0,1,.63,3.15h-2A5.91,5.91,0,0,0,347,96a6,6,0,0,0-3.21-3.21,6.09,6.09,0,0,0-4.74,0A6,6,0,0,0,335.85,96a5.91,5.91,0,0,0-.48,2.37v14.1a5.91,5.91,0,0,0,.48,2.37,6,6,0,0,0,3.21,3.21A5.91,5.91,0,0,0,341.43,118.48Z"/><path class="cls-1" d="M365.79,103.72q-.54.18-1.8.69t-2.73,1q-1.47.54-2.85,1.08t-2.16.78v5.1a5.91,5.91,0,0,0,.48,2.37,6,6,0,0,0,3.21,3.21,6.09,6.09,0,0,0,4.74,0,6,6,0,0,0,3.21-3.21,5.91,5.91,0,0,0,.48-2.37h2a7.91,7.91,0,0,1-.63,3.15,7.94,7.94,0,0,1-4.26,4.26,8.19,8.19,0,0,1-6.3,0,7.94,7.94,0,0,1-4.26-4.26,7.91,7.91,0,0,1-.63-3.15V98.32a7.91,7.91,0,0,1,.63-3.15,7.94,7.94,0,0,1,4.26-4.26,8.19,8.19,0,0,1,6.3,0,7.94,7.94,0,0,1,4.26,4.26,7.76,7.76,0,0,1,.63,3.09v.06Q370.35,102,365.79,103.72Zm-3.48-11.46a5.91,5.91,0,0,0-2.37.48A6,6,0,0,0,356.73,96a5.91,5.91,0,0,0-.48,2.37v6.9l2.22-.87,2.64-1,2.43-.9,1.59-.6a8.65,8.65,0,0,0,2.16-1.26,2.8,2.8,0,0,0,1.08-2.34,5.7,5.7,0,0,0-.48-2.34A6.22,6.22,0,0,0,366.6,94a6.12,6.12,0,0,0-1.92-1.29A5.91,5.91,0,0,0,362.31,92.26Z"/><path class="cls-1" d="M383.07,104.44q1.32.66,2.67,1.41a13.53,13.53,0,0,1,2.43,1.71,8.88,8.88,0,0,1,1.77,2.13,5.27,5.27,0,0,1,.69,2.73,7.91,7.91,0,0,1-.63,3.15,7.94,7.94,0,0,1-4.26,4.26,8.19,8.19,0,0,1-6.3,0,7.94,7.94,0,0,1-4.26-4.26,7.91,7.91,0,0,1-.63-3.15h2a5.91,5.91,0,0,0,.48,2.37,6,6,0,0,0,3.21,3.21,6.09,6.09,0,0,0,4.74,0,6,6,0,0,0,3.21-3.21,5.91,5.91,0,0,0,.48-2.37,3.62,3.62,0,0,0-.54-2,6.3,6.3,0,0,0-1.44-1.59,13.71,13.71,0,0,0-2.07-1.35l-2.43-1.29q-1.38-.66-2.73-1.41a14.5,14.5,0,0,1-2.43-1.68,8.38,8.38,0,0,1-1.77-2.1,5.27,5.27,0,0,1-.69-2.73,7.91,7.91,0,0,1,.63-3.15,7.94,7.94,0,0,1,4.26-4.26,8.19,8.19,0,0,1,6.3,0A7.94,7.94,0,0,1,390,95.17a7.91,7.91,0,0,1,.63,3.15h-2a5.91,5.91,0,0,0-.48-2.37A6,6,0,0,0,385,92.74a6.09,6.09,0,0,0-4.74,0A6,6,0,0,0,377,96a5.91,5.91,0,0,0-.48,2.37,3.62,3.62,0,0,0,.54,2,6.08,6.08,0,0,0,1.47,1.59,15.18,15.18,0,0,0,2.1,1.35Q381.81,103.84,383.07,104.44Z"/><path class="cls-1" d="M403.65,104.44q1.32.66,2.67,1.41a13.53,13.53,0,0,1,2.43,1.71,8.88,8.88,0,0,1,1.77,2.13,5.27,5.27,0,0,1,.69,2.73,7.91,7.91,0,0,1-.63,3.15,7.94,7.94,0,0,1-4.26,4.26,8.19,8.19,0,0,1-6.3,0,7.94,7.94,0,0,1-4.26-4.26,7.91,7.91,0,0,1-.63-3.15h2a5.91,5.91,0,0,0,.48,2.37A6,6,0,0,0,400.8,118a6.09,6.09,0,0,0,4.74,0,6,6,0,0,0,3.21-3.21,5.91,5.91,0,0,0,.48-2.37,3.62,3.62,0,0,0-.54-2,6.3,6.3,0,0,0-1.44-1.59,13.71,13.71,0,0,0-2.07-1.35l-2.43-1.29q-1.38-.66-2.73-1.41a14.5,14.5,0,0,1-2.43-1.68,8.38,8.38,0,0,1-1.77-2.1,5.27,5.27,0,0,1-.69-2.73,7.91,7.91,0,0,1,.63-3.15A7.94,7.94,0,0,1,400,90.91a8.19,8.19,0,0,1,6.3,0,7.94,7.94,0,0,1,4.26,4.26,7.91,7.91,0,0,1,.63,3.15h-2a5.91,5.91,0,0,0-.48-2.37,6,6,0,0,0-3.21-3.21,6.09,6.09,0,0,0-4.74,0A6,6,0,0,0,397.59,96a5.91,5.91,0,0,0-.48,2.37,3.62,3.62,0,0,0,.54,2,6.08,6.08,0,0,0,1.47,1.59,15.18,15.18,0,0,0,2.1,1.35Q402.39,103.84,403.65,104.44Z"/><path class="cls-1" d="M416.55,90.1h2v29.64h-2V92.14h-2v-2Zm.48-6.84a1.5,1.5,0,1,1,0-3,1.49,1.49,0,0,1,1.05.42,1.52,1.52,0,0,1,0,2.16A1.49,1.49,0,0,1,417,83.26Z"/><path class="cls-1" d="M432.57,90.28a7.91,7.91,0,0,1,3.15.63A7.94,7.94,0,0,1,440,95.17a7.91,7.91,0,0,1,.63,3.15v21.84h-2V98.32a5.91,5.91,0,0,0-.48-2.37,6,6,0,0,0-3.21-3.21,6.09,6.09,0,0,0-4.74,0A6,6,0,0,0,427,96a5.91,5.91,0,0,0-.48,2.37v21.84h-2V90.58h2V93a7.88,7.88,0,0,1,6.06-2.76Z"/><path class="cls-1" d="M461.49,90.58V126a7.91,7.91,0,0,1-.63,3.15,7.94,7.94,0,0,1-4.26,4.26,8.19,8.19,0,0,1-6.3,0,7.94,7.94,0,0,1-4.26-4.26,7.91,7.91,0,0,1-.63-3.15h2a5.7,5.7,0,0,0,.48,2.34,6.61,6.61,0,0,0,1.29,1.92,6,6,0,0,0,8.58,0,6.61,6.61,0,0,0,1.29-1.92,5.7,5.7,0,0,0,.48-2.34V117.7a8.67,8.67,0,0,1-2.7,2,7.65,7.65,0,0,1-3.36.75,7.91,7.91,0,0,1-3.15-.63,7.94,7.94,0,0,1-4.26-4.26,7.91,7.91,0,0,1-.63-3.15V98.32a7.91,7.91,0,0,1,.63-3.15,7.94,7.94,0,0,1,4.26-4.26A8,8,0,0,1,459.51,93V90.58Zm-8,27.9a5.91,5.91,0,0,0,2.37-.48,6,6,0,0,0,3.21-3.21,5.91,5.91,0,0,0,.48-2.37V98.32A5.91,5.91,0,0,0,459,96a6,6,0,0,0-3.21-3.21,6.09,6.09,0,0,0-4.74,0A6,6,0,0,0,447.87,96a5.91,5.91,0,0,0-.48,2.37v14.1a5.91,5.91,0,0,0,.48,2.37,6,6,0,0,0,3.21,3.21A5.91,5.91,0,0,0,453.45,118.48Z"/><path class="cls-1" d="M491,118.18v2H476.19V79.6h2v38.58Z"/><path class="cls-1" d="M495.45,90.1h2v29.64h-2V92.14h-2v-2Zm.48-6.84a1.5,1.5,0,1,1,0-3,1.49,1.49,0,0,1,1.05.42,1.52,1.52,0,0,1,0,2.16A1.49,1.49,0,0,1,495.93,83.26Z"/><path class="cls-1" d="M510.27,90.28a7.91,7.91,0,0,1,3.15.63,7.94,7.94,0,0,1,4.26,4.26,7.91,7.91,0,0,1,.63,3.15v14.1a7.91,7.91,0,0,1-.63,3.15,7.94,7.94,0,0,1-4.26,4.26,7.91,7.91,0,0,1-3.15.63,7.65,7.65,0,0,1-3.36-.75,8.67,8.67,0,0,1-2.7-2v2.46h-2v-43h2V93a7.88,7.88,0,0,1,6.06-2.76Zm6.06,8a5.91,5.91,0,0,0-.48-2.37,6,6,0,0,0-3.21-3.21,6.09,6.09,0,0,0-4.74,0A6,6,0,0,0,504.69,96a5.91,5.91,0,0,0-.48,2.37v14.1a5.91,5.91,0,0,0,.48,2.37A6,6,0,0,0,507.9,118a6.09,6.09,0,0,0,4.74,0,6,6,0,0,0,3.21-3.21,5.91,5.91,0,0,0,.48-2.37Z"/><path class="cls-1" d="M535.47,90.28v2h-2.34a5.7,5.7,0,0,0-2.34.48A6.61,6.61,0,0,0,528.87,94a5.94,5.94,0,0,0-1.8,4.29v21.84h-2V92.56h-2v-2h4V93A7.78,7.78,0,0,1,533,90.28Z"/><path class="cls-1" d="M545.79,90.28a7.22,7.22,0,0,1,5.43,2.34,8,8,0,0,1,1.56,2.55,8.64,8.64,0,0,1,.57,3.15v21.84h-2V117.7a8.67,8.67,0,0,1-2.7,2,7.65,7.65,0,0,1-3.36.75,7.91,7.91,0,0,1-3.15-.63,7.94,7.94,0,0,1-4.26-4.26,7.91,7.91,0,0,1-.63-3.15v-1.68q0-3.72,4.56-5.4.54-.24,1.83-.72l2.76-1.05,2.85-1.08q1.38-.51,2.1-.81V98.32A6.34,6.34,0,0,0,549.84,94a5.09,5.09,0,0,0-4.05-1.77,5.7,5.7,0,0,0-2.34.48A6.61,6.61,0,0,0,541.53,94a5.94,5.94,0,0,0-1.8,4.29h-2a7.91,7.91,0,0,1,.63-3.15,7.94,7.94,0,0,1,4.26-4.26A7.91,7.91,0,0,1,545.79,90.28Zm5.58,15.06v-1.5q-.9.36-2.22.84t-2.64,1l-2.4.93-1.56.6a8.29,8.29,0,0,0-2.22,1.26,2.73,2.73,0,0,0-1.08,2.28v1.68a5.91,5.91,0,0,0,.48,2.37,6,6,0,0,0,3.21,3.21,6.09,6.09,0,0,0,4.74,0,6,6,0,0,0,3.21-3.21,5.91,5.91,0,0,0,.48-2.37v-7.08Z"/><path class="cls-1" d="M570.21,90.28v2h-2.34a5.7,5.7,0,0,0-2.34.48A6.61,6.61,0,0,0,563.61,94a5.94,5.94,0,0,0-1.8,4.29v21.84h-2V92.56h-2v-2h4V93a7.78,7.78,0,0,1,5.88-2.76Z"/><path class="cls-1" d="M591.09,90.58l-10.5,43h-2l3.12-13-8.46-30.06h2l7.38,26.16,6.42-26.16Z"/></svg>