<?xml version="1.0" encoding="utf-8"?>
<!-- Generator: Adobe Illustrator 23.0.3, SVG Export Plug-In . SVG Version: 6.00 Build 0)  -->
<svg version="1.1" id="Layer_1" xmlns="http://www.w3.org/2000/svg" xmlns:xlink="http://www.w3.org/1999/xlink" x="0px" y="0px"
	 viewBox="0 0 635 137" style="enable-background:new 0 0 635 137;" xml:space="preserve">
<style type="text/css">
	.st0{stroke:#000000;stroke-miterlimit:10;}
</style>
<g>
	<path class="st0" d="M11.68,26.7c1,0.8,1.99,1.63,2.97,2.49c0.98,0.86,1.86,1.8,2.64,2.82c0.78,1.02,1.41,2.16,1.89,3.42
		c0.48,1.26,0.72,2.69,0.72,4.3c0,1.2-0.23,2.33-0.69,3.4c-0.46,1.06-1.08,1.98-1.86,2.76c-0.78,0.78-1.69,1.4-2.73,1.86
		c-1.04,0.46-2.16,0.69-3.36,0.69c-1.2,0-2.33-0.23-3.39-0.69c-1.06-0.46-1.98-1.08-2.76-1.86c-0.78-0.78-1.4-1.7-1.86-2.76
		c-0.46-1.06-0.69-2.19-0.69-3.39h1.98c0,0.92,0.18,1.79,0.54,2.61c0.36,0.82,0.84,1.53,1.44,2.13c0.6,0.6,1.31,1.08,2.13,1.44
		c0.82,0.36,1.69,0.54,2.61,0.54c0.92,0,1.78-0.18,2.58-0.54c0.8-0.36,1.5-0.84,2.1-1.44c0.6-0.6,1.08-1.31,1.44-2.13
		c0.36-0.82,0.54-1.69,0.54-2.61c0-1.36-0.21-2.58-0.63-3.66s-0.98-2.07-1.68-2.97c-0.7-0.9-1.5-1.74-2.4-2.52
		c-0.9-0.78-1.83-1.55-2.79-2.31c-0.96-0.76-1.91-1.55-2.85-2.37c-0.94-0.82-1.78-1.71-2.52-2.67c-0.74-0.96-1.34-2.02-1.8-3.18
		c-0.46-1.16-0.69-2.5-0.69-4.02c0-1.2,0.23-2.33,0.69-3.39c0.46-1.06,1.08-1.98,1.86-2.76c0.78-0.78,1.7-1.4,2.76-1.86
		c1.06-0.46,2.19-0.69,3.39-0.69c1.2,0,2.32,0.22,3.36,0.67c1.04,0.45,1.95,1.06,2.73,1.83c0.78,0.77,1.4,1.69,1.86,2.75
		c0.46,1.06,0.69,2.19,0.69,3.39h-1.98c0-0.92-0.18-1.78-0.54-2.58c-0.36-0.8-0.84-1.5-1.44-2.1c-0.6-0.6-1.3-1.08-2.1-1.44
		c-0.8-0.36-1.66-0.54-2.58-0.54c-0.92,0-1.79,0.18-2.61,0.54c-0.82,0.36-1.53,0.84-2.13,1.44c-0.6,0.6-1.08,1.3-1.44,2.1
		c-0.36,0.8-0.54,1.66-0.54,2.58c0,1.28,0.2,2.41,0.6,3.4c0.4,0.98,0.93,1.89,1.59,2.73c0.66,0.84,1.42,1.63,2.28,2.37
		C9.87,25.25,10.75,25.98,11.68,26.7z"/>
	<path class="st0" d="M26.74,18.1h1.98v2.04v27.6h-1.98v-27.6h-1.98V18.1H26.74z M27.22,11.26c-0.44,0-0.8-0.14-1.08-0.42
		c-0.28-0.28-0.42-0.64-0.42-1.08c0-0.44,0.14-0.8,0.42-1.08c0.28-0.28,0.64-0.42,1.08-0.42c0.4,0,0.75,0.14,1.05,0.42
		c0.3,0.28,0.45,0.64,0.45,1.08c0,0.44-0.15,0.8-0.45,1.08C27.97,11.12,27.61,11.26,27.22,11.26z"/>
	<path class="st0" d="M56.25,18.28c1.12,0,2.17,0.21,3.15,0.63c0.98,0.42,1.83,0.99,2.55,1.71c0.72,0.72,1.29,1.57,1.71,2.55
		c0.42,0.98,0.63,2.03,0.63,3.15v7.02v14.82h-1.98V33.34v-7.02c0-0.84-0.16-1.63-0.48-2.37c-0.32-0.74-0.75-1.38-1.29-1.92
		s-1.18-0.97-1.92-1.29c-0.74-0.32-1.53-0.48-2.37-0.48c-0.84,0-1.62,0.16-2.34,0.48c-0.72,0.32-1.36,0.75-1.92,1.29
		c-0.56,0.54-1,1.18-1.32,1.92c-0.32,0.74-0.48,1.53-0.48,2.37v7.02v14.82h-1.98V33.34v-7.02c0-0.84-0.16-1.63-0.48-2.37
		c-0.32-0.74-0.75-1.38-1.29-1.92s-1.18-0.97-1.92-1.29c-0.74-0.32-1.53-0.48-2.37-0.48s-1.63,0.16-2.37,0.48
		c-0.74,0.32-1.38,0.75-1.92,1.29s-0.97,1.18-1.29,1.92c-0.32,0.74-0.48,1.53-0.48,2.37v7.02v14.82h-1.98V33.34v-7.02v-7.74h1.98
		v2.46c0.76-0.88,1.66-1.56,2.7-2.04c1.04-0.48,2.16-0.72,3.36-0.72c1.52,0,2.91,0.38,4.17,1.14c1.26,0.76,2.23,1.76,2.91,3
		c0.68-1.24,1.64-2.24,2.88-3C53.35,18.66,54.73,18.28,56.25,18.28z"/>
	<path class="st0" d="M77.13,18.28c1.12,0,2.17,0.21,3.15,0.63c0.98,0.42,1.83,0.99,2.55,1.71c0.72,0.72,1.29,1.57,1.71,2.55
		c0.42,0.98,0.63,2.03,0.63,3.15v14.1c0,1.12-0.21,2.17-0.63,3.15c-0.42,0.98-0.99,1.83-1.71,2.55c-0.72,0.72-1.57,1.29-2.55,1.71
		c-0.98,0.42-2.03,0.63-3.15,0.63c-1.2,0-2.32-0.25-3.36-0.75c-1.04-0.5-1.94-1.17-2.7-2.01v15.9h-1.98V40.42v-14.1v-7.74h1.98v2.46
		c0.76-0.88,1.66-1.56,2.7-2.04C74.81,18.52,75.93,18.28,77.13,18.28z M83.19,26.32c0-0.84-0.16-1.63-0.48-2.37
		c-0.32-0.74-0.75-1.38-1.29-1.92s-1.18-0.97-1.92-1.29c-0.74-0.32-1.53-0.48-2.37-0.48s-1.63,0.16-2.37,0.48
		c-0.74,0.32-1.38,0.75-1.92,1.29s-0.97,1.18-1.29,1.92c-0.32,0.74-0.48,1.53-0.48,2.37v14.1c0,0.84,0.16,1.63,0.48,2.37
		c0.32,0.74,0.75,1.38,1.29,1.92s1.18,0.97,1.92,1.29c0.74,0.32,1.53,0.48,2.37,0.48s1.63-0.16,2.37-0.48
		c0.74-0.32,1.38-0.75,1.92-1.29s0.97-1.18,1.29-1.92c0.32-0.74,0.48-1.53,0.48-2.37V26.32z"/>
	<path class="st0" d="M89.97,48.16V5.14h1.98v43.02H89.97z"/>
	<path class="st0" d="M108.87,31.72c-0.36,0.12-0.96,0.35-1.8,0.69c-0.84,0.34-1.75,0.69-2.73,1.05c-0.98,0.36-1.93,0.72-2.85,1.08
		c-0.92,0.36-1.64,0.62-2.16,0.78v5.1c0,0.84,0.16,1.63,0.48,2.37c0.32,0.74,0.75,1.38,1.29,1.92s1.18,0.97,1.92,1.29
		c0.74,0.32,1.53,0.48,2.37,0.48s1.63-0.16,2.37-0.48c0.74-0.32,1.38-0.75,1.92-1.29s0.97-1.18,1.29-1.92
		c0.32-0.74,0.48-1.53,0.48-2.37h1.98c0,1.12-0.21,2.17-0.63,3.15c-0.42,0.98-0.99,1.83-1.71,2.55c-0.72,0.72-1.57,1.29-2.55,1.71
		c-0.98,0.42-2.03,0.63-3.15,0.63c-1.12,0-2.17-0.21-3.15-0.63c-0.98-0.42-1.83-0.99-2.55-1.71c-0.72-0.72-1.29-1.57-1.71-2.55
		c-0.42-0.98-0.63-2.03-0.63-3.15v-14.1c0-1.12,0.21-2.17,0.63-3.15c0.42-0.98,0.99-1.83,1.71-2.55c0.72-0.72,1.57-1.29,2.55-1.71
		c0.98-0.42,2.03-0.63,3.15-0.63c1.12,0,2.17,0.21,3.15,0.63c0.98,0.42,1.83,0.99,2.55,1.71c0.72,0.72,1.29,1.57,1.71,2.55
		c0.42,0.98,0.63,2.01,0.63,3.09v0.06C113.43,28.8,111.91,30.6,108.87,31.72z M105.39,20.26c-0.84,0-1.63,0.16-2.37,0.48
		c-0.74,0.32-1.38,0.75-1.92,1.29s-0.97,1.18-1.29,1.92c-0.32,0.74-0.48,1.53-0.48,2.37v6.9c0.6-0.24,1.34-0.53,2.22-0.87
		c0.88-0.34,1.76-0.67,2.64-0.99c0.88-0.32,1.69-0.62,2.43-0.9c0.74-0.28,1.27-0.48,1.59-0.6c0.72-0.28,1.44-0.7,2.16-1.26
		c0.72-0.56,1.08-1.34,1.08-2.34c0-0.84-0.16-1.62-0.48-2.34c-0.32-0.72-0.75-1.35-1.29-1.89s-1.18-0.97-1.92-1.29
		C107.02,20.42,106.23,20.26,105.39,20.26z"/>
	<path class="st0" d="M122.52,47.44c-0.02,0.44-0.11,0.94-0.27,1.5c-0.16,0.56-0.42,1.17-0.78,1.83c-0.36,0.66-0.84,1.31-1.44,1.95
		l-1.14-1.08c0.56-0.56,0.98-1.11,1.26-1.65c0.28-0.54,0.48-1.05,0.6-1.53c-0.08,0-0.14,0.01-0.18,0.03
		c-0.04,0.02-0.1,0.03-0.18,0.03c-0.6,0-1.11-0.22-1.53-0.66s-0.63-0.96-0.63-1.56c0-0.56,0.21-1.06,0.63-1.5
		c0.42-0.44,0.93-0.66,1.53-0.66c0.6,0,1.11,0.22,1.53,0.66c0.42,0.44,0.63,0.94,0.63,1.5v0.18C122.55,46.68,122.54,47,122.52,47.44
		z"/>
	<path class="st0" d="M145.23,7.6c1.2,0,2.31,0.23,3.33,0.69c1.02,0.46,1.92,1.08,2.7,1.86c0.78,0.78,1.39,1.69,1.83,2.73
		c0.44,1.04,0.66,2.14,0.66,3.3v8.28c0,1.16-0.21,2.24-0.63,3.24c-0.42,1-1,1.88-1.74,2.64c-0.74,0.76-1.6,1.38-2.58,1.86
		c-0.98,0.48-2.03,0.76-3.15,0.84h-0.3h-0.24h-5.82v15.12h-1.98V7.6h1.02h0.96H145.23z M151.77,16.18c0-0.88-0.18-1.72-0.54-2.52
		c-0.36-0.8-0.84-1.5-1.44-2.1s-1.3-1.08-2.1-1.44c-0.8-0.36-1.66-0.54-2.58-0.54h-5.82v21.48h5.94c0.92,0,1.78-0.18,2.58-0.54
		c0.8-0.36,1.49-0.84,2.07-1.44c0.58-0.6,1.04-1.29,1.38-2.07c0.34-0.78,0.51-1.63,0.51-2.55V16.18z"/>
	<path class="st0" d="M165.39,48.46c-1.12,0-2.17-0.21-3.15-0.63c-0.98-0.42-1.83-0.99-2.55-1.71c-0.72-0.72-1.29-1.57-1.71-2.55
		c-0.42-0.98-0.63-2.03-0.63-3.15v-14.1c0-1.12,0.21-2.17,0.63-3.15c0.42-0.98,0.99-1.83,1.71-2.55c0.72-0.72,1.57-1.29,2.55-1.71
		c0.98-0.42,2.03-0.63,3.15-0.63c1.12,0,2.17,0.21,3.15,0.63c0.98,0.42,1.83,0.99,2.55,1.71c0.72,0.72,1.29,1.57,1.71,2.55
		c0.42,0.98,0.63,2.03,0.63,3.15v14.1c0,1.12-0.21,2.17-0.63,3.15c-0.42,0.98-0.99,1.83-1.71,2.55c-0.72,0.72-1.57,1.29-2.55,1.71
		C167.56,48.25,166.51,48.46,165.39,48.46z M165.39,20.26c-0.84,0-1.63,0.16-2.37,0.48c-0.74,0.32-1.38,0.75-1.92,1.29
		s-0.97,1.18-1.29,1.92c-0.32,0.74-0.48,1.53-0.48,2.37v14.1c0,0.84,0.16,1.63,0.48,2.37c0.32,0.74,0.75,1.38,1.29,1.92
		s1.18,0.97,1.92,1.29c0.74,0.32,1.53,0.48,2.37,0.48s1.63-0.16,2.37-0.48c0.74-0.32,1.38-0.75,1.92-1.29s0.97-1.18,1.29-1.92
		c0.32-0.74,0.48-1.53,0.48-2.37v-14.1c0-0.84-0.16-1.63-0.48-2.37c-0.32-0.74-0.75-1.38-1.29-1.92s-1.18-0.97-1.92-1.29
		C167.02,20.42,166.23,20.26,165.39,20.26z"/>
	<path class="st0" d="M204.87,18.58l-6.72,29.58h-2.94l-4.26-24l-4.26,24h-3l-6.66-29.58h2.04l6.06,26.88l4.8-26.88h1.98h0.06
		l4.8,26.88l6.06-26.88H204.87z"/>
	<path class="st0" d="M219.39,31.72c-0.36,0.12-0.96,0.35-1.8,0.69c-0.84,0.34-1.75,0.69-2.73,1.05c-0.98,0.36-1.93,0.72-2.85,1.08
		c-0.92,0.36-1.64,0.62-2.16,0.78v5.1c0,0.84,0.16,1.63,0.48,2.37c0.32,0.74,0.75,1.38,1.29,1.92s1.18,0.97,1.92,1.29
		c0.74,0.32,1.53,0.48,2.37,0.48s1.63-0.16,2.37-0.48c0.74-0.32,1.38-0.75,1.92-1.29s0.97-1.18,1.29-1.92
		c0.32-0.74,0.48-1.53,0.48-2.37h1.98c0,1.12-0.21,2.17-0.63,3.15c-0.42,0.98-0.99,1.83-1.71,2.55c-0.72,0.72-1.57,1.29-2.55,1.71
		c-0.98,0.42-2.03,0.63-3.15,0.63c-1.12,0-2.17-0.21-3.15-0.63c-0.98-0.42-1.83-0.99-2.55-1.71c-0.72-0.72-1.29-1.57-1.71-2.55
		c-0.42-0.98-0.63-2.03-0.63-3.15v-14.1c0-1.12,0.21-2.17,0.63-3.15c0.42-0.98,0.99-1.83,1.71-2.55c0.72-0.72,1.57-1.29,2.55-1.71
		c0.98-0.42,2.03-0.63,3.15-0.63c1.12,0,2.17,0.21,3.15,0.63c0.98,0.42,1.83,0.99,2.55,1.71c0.72,0.72,1.29,1.57,1.71,2.55
		c0.42,0.98,0.63,2.01,0.63,3.09v0.06C223.95,28.8,222.43,30.6,219.39,31.72z M215.91,20.26c-0.84,0-1.63,0.16-2.37,0.48
		c-0.74,0.32-1.38,0.75-1.92,1.29s-0.97,1.18-1.29,1.92c-0.32,0.74-0.48,1.53-0.48,2.37v6.9c0.6-0.24,1.34-0.53,2.22-0.87
		c0.88-0.34,1.76-0.67,2.64-0.99c0.88-0.32,1.69-0.62,2.43-0.9c0.74-0.28,1.27-0.48,1.59-0.6c0.72-0.28,1.44-0.7,2.16-1.26
		c0.72-0.56,1.08-1.34,1.08-2.34c0-0.84-0.16-1.62-0.48-2.34c-0.32-0.72-0.75-1.35-1.29-1.89s-1.18-0.97-1.92-1.29
		C217.54,20.42,216.75,20.26,215.91,20.26z"/>
	<path class="st0" d="M239.61,18.28v1.98h-2.34c-0.84,0-1.62,0.16-2.34,0.48c-0.72,0.32-1.36,0.75-1.92,1.29
		c-0.56,0.54-1,1.18-1.32,1.92c-0.32,0.74-0.48,1.53-0.48,2.37v7.02v14.82h-1.98V33.34v-7.02v-5.76h-1.98v-1.98h1.98h1.98v1.98v0.48
		c1.52-1.76,3.48-2.68,5.88-2.76H239.61z"/>
	<path class="st0" d="M252.75,20.56h-6.48v25.92v1.68v5.34c0,1.12-0.19,2.17-0.57,3.15c-0.38,0.98-0.9,1.84-1.56,2.58
		s-1.43,1.32-2.31,1.74c-0.88,0.42-1.82,0.63-2.82,0.63v-1.98c0.72,0,1.4-0.16,2.04-0.48c0.64-0.32,1.2-0.75,1.68-1.29
		c0.48-0.54,0.86-1.18,1.14-1.92c0.28-0.74,0.42-1.53,0.42-2.37V48.2v-1.68V20.56v-0.3v-1.68v-5.4c0-1.12,0.19-2.17,0.57-3.15
		c0.38-0.98,0.9-1.83,1.56-2.55c0.66-0.72,1.43-1.29,2.31-1.71c0.88-0.42,1.82-0.63,2.82-0.63v1.98c-0.72,0-1.4,0.16-2.04,0.48
		c-0.64,0.32-1.2,0.76-1.68,1.32c-0.48,0.56-0.86,1.2-1.14,1.92c-0.28,0.72-0.42,1.5-0.42,2.34v5.4h6.48V20.56z"/>
	<path class="st0" d="M270.63,18.58v14.76v7.08v7.74h-1.98V45.7c-0.76,0.84-1.66,1.51-2.7,2.01c-1.04,0.5-2.16,0.75-3.36,0.75
		c-1.12,0-2.17-0.21-3.15-0.63c-0.98-0.42-1.83-0.99-2.55-1.71c-0.72-0.72-1.29-1.57-1.71-2.55c-0.42-0.98-0.63-2.03-0.63-3.15
		v-7.08V18.58h1.98v14.76v7.08c0,0.84,0.16,1.63,0.48,2.37c0.32,0.74,0.75,1.38,1.29,1.92s1.18,0.97,1.92,1.29
		c0.74,0.32,1.53,0.48,2.37,0.48s1.63-0.16,2.37-0.48c0.74-0.32,1.38-0.75,1.92-1.29s0.97-1.18,1.29-1.92
		c0.32-0.74,0.48-1.53,0.48-2.37v-7.08V18.58H270.63z"/>
	<path class="st0" d="M275.73,48.16V5.14h1.98v43.02H275.73z"/>
	<path class="st0" d="M287.4,47.44c-0.02,0.44-0.11,0.94-0.27,1.5c-0.16,0.56-0.42,1.17-0.78,1.83c-0.36,0.66-0.84,1.31-1.44,1.95
		l-1.14-1.08c0.56-0.56,0.98-1.11,1.26-1.65c0.28-0.54,0.48-1.05,0.6-1.53c-0.08,0-0.14,0.01-0.18,0.03
		c-0.04,0.02-0.1,0.03-0.18,0.03c-0.6,0-1.11-0.22-1.53-0.66s-0.63-0.96-0.63-1.56c0-0.56,0.21-1.06,0.63-1.5
		c0.42-0.44,0.93-0.66,1.53-0.66c0.6,0,1.11,0.22,1.53,0.66c0.42,0.44,0.63,0.94,0.63,1.5v0.18C287.43,46.68,287.42,47,287.4,47.44z
		"/>
	<path class="st0" d="M304.17,9.58v15.36h11.34v1.98h-11.34v21.24h-1.98V7.6h1.98h13.8v1.98H304.17z"/>
	<path class="st0" d="M321.57,48.16V5.14h1.98v43.02H321.57z"/>
	<path class="st0" d="M340.47,31.72c-0.36,0.12-0.96,0.35-1.8,0.69c-0.84,0.34-1.75,0.69-2.73,1.05c-0.98,0.36-1.93,0.72-2.85,1.08
		s-1.64,0.62-2.16,0.78v5.1c0,0.84,0.16,1.63,0.48,2.37c0.32,0.74,0.75,1.38,1.29,1.92s1.18,0.97,1.92,1.29s1.53,0.48,2.37,0.48
		s1.63-0.16,2.37-0.48c0.74-0.32,1.38-0.75,1.92-1.29s0.97-1.18,1.29-1.92c0.32-0.74,0.48-1.53,0.48-2.37h1.98
		c0,1.12-0.21,2.17-0.63,3.15c-0.42,0.98-0.99,1.83-1.71,2.55c-0.72,0.72-1.57,1.29-2.55,1.71c-0.98,0.42-2.03,0.63-3.15,0.63
		c-1.12,0-2.17-0.21-3.15-0.63c-0.98-0.42-1.83-0.99-2.55-1.71c-0.72-0.72-1.29-1.57-1.71-2.55c-0.42-0.98-0.63-2.03-0.63-3.15
		v-14.1c0-1.12,0.21-2.17,0.63-3.15c0.42-0.98,0.99-1.83,1.71-2.55s1.57-1.29,2.55-1.71s2.03-0.63,3.15-0.63
		c1.12,0,2.17,0.21,3.15,0.63c0.98,0.42,1.83,0.99,2.55,1.71c0.72,0.72,1.29,1.57,1.71,2.55c0.42,0.98,0.63,2.01,0.63,3.09v0.06
		C345.03,28.8,343.51,30.6,340.47,31.72z M336.99,20.26c-0.84,0-1.63,0.16-2.37,0.48c-0.74,0.32-1.38,0.75-1.92,1.29
		s-0.97,1.18-1.29,1.92c-0.32,0.74-0.48,1.53-0.48,2.37v6.9c0.6-0.24,1.34-0.53,2.22-0.87c0.88-0.34,1.76-0.67,2.64-0.99
		c0.88-0.32,1.69-0.62,2.43-0.9c0.74-0.28,1.27-0.48,1.59-0.6c0.72-0.28,1.44-0.7,2.16-1.26c0.72-0.56,1.08-1.34,1.08-2.34
		c0-0.84-0.16-1.62-0.48-2.34c-0.32-0.72-0.75-1.35-1.29-1.89s-1.18-0.97-1.92-1.29C338.62,20.42,337.83,20.26,336.99,20.26z"/>
	<path class="st0" d="M356.07,33.1l-7.2-14.52h2.22l6.12,12.24l6.06-12.24h2.22l-7.2,14.52l7.5,15.06h-2.28l-6.3-12.84l-6.36,12.84
		h-2.22L356.07,33.1z"/>
	<path class="st0" d="M370.83,18.1h1.98v2.04v27.6h-1.98v-27.6h-1.98V18.1H370.83z M371.31,11.26c-0.44,0-0.8-0.14-1.08-0.42
		c-0.28-0.28-0.42-0.64-0.42-1.08c0-0.44,0.14-0.8,0.42-1.08c0.28-0.28,0.64-0.42,1.08-0.42c0.4,0,0.75,0.14,1.05,0.42
		c0.3,0.28,0.45,0.64,0.45,1.08c0,0.44-0.15,0.8-0.45,1.08C372.06,11.12,371.71,11.26,371.31,11.26z"/>
	<path class="st0" d="M385.65,18.28c1.12,0,2.17,0.21,3.15,0.63c0.98,0.42,1.83,0.99,2.55,1.71c0.72,0.72,1.29,1.57,1.71,2.55
		c0.42,0.98,0.63,2.03,0.63,3.15v14.1c0,1.12-0.21,2.17-0.63,3.15c-0.42,0.98-0.99,1.83-1.71,2.55c-0.72,0.72-1.57,1.29-2.55,1.71
		c-0.98,0.42-2.03,0.63-3.15,0.63c-1.2,0-2.32-0.25-3.36-0.75c-1.04-0.5-1.94-1.17-2.7-2.01v2.46h-1.98v-7.74v-14.1V5.14h1.98v15.9
		c0.76-0.88,1.66-1.56,2.7-2.04S384.45,18.28,385.65,18.28z M391.71,26.32c0-0.84-0.16-1.63-0.48-2.37
		c-0.32-0.74-0.75-1.38-1.29-1.92s-1.18-0.97-1.92-1.29c-0.74-0.32-1.53-0.48-2.37-0.48s-1.63,0.16-2.37,0.48
		c-0.74,0.32-1.38,0.75-1.92,1.29s-0.97,1.18-1.29,1.92c-0.32,0.74-0.48,1.53-0.48,2.37v14.1c0,0.84,0.16,1.63,0.48,2.37
		c0.32,0.74,0.75,1.38,1.29,1.92s1.18,0.97,1.92,1.29s1.53,0.48,2.37,0.48s1.63-0.16,2.37-0.48c0.74-0.32,1.38-0.75,1.92-1.29
		s0.97-1.18,1.29-1.92c0.32-0.74,0.48-1.53,0.48-2.37V26.32z"/>
	<path class="st0" d="M398.49,48.16V5.14h1.98v43.02H398.49z"/>
	<path class="st0" d="M417.39,31.72c-0.36,0.12-0.96,0.35-1.8,0.69c-0.84,0.34-1.75,0.69-2.73,1.05c-0.98,0.36-1.93,0.72-2.85,1.08
		s-1.64,0.62-2.16,0.78v5.1c0,0.84,0.16,1.63,0.48,2.37c0.32,0.74,0.75,1.38,1.29,1.92s1.18,0.97,1.92,1.29s1.53,0.48,2.37,0.48
		s1.63-0.16,2.37-0.48c0.74-0.32,1.38-0.75,1.92-1.29s0.97-1.18,1.29-1.92c0.32-0.74,0.48-1.53,0.48-2.37h1.98
		c0,1.12-0.21,2.17-0.63,3.15c-0.42,0.98-0.99,1.83-1.71,2.55c-0.72,0.72-1.57,1.29-2.55,1.71c-0.98,0.42-2.03,0.63-3.15,0.63
		c-1.12,0-2.17-0.21-3.15-0.63c-0.98-0.42-1.83-0.99-2.55-1.71c-0.72-0.72-1.29-1.57-1.71-2.55c-0.42-0.98-0.63-2.03-0.63-3.15
		v-14.1c0-1.12,0.21-2.17,0.63-3.15c0.42-0.98,0.99-1.83,1.71-2.55s1.57-1.29,2.55-1.71s2.03-0.63,3.15-0.63
		c1.12,0,2.17,0.21,3.15,0.63c0.98,0.42,1.83,0.99,2.55,1.71c0.72,0.72,1.29,1.57,1.71,2.55c0.42,0.98,0.63,2.01,0.63,3.09v0.06
		C421.95,28.8,420.43,30.6,417.39,31.72z M413.91,20.26c-0.84,0-1.63,0.16-2.37,0.48c-0.74,0.32-1.38,0.75-1.92,1.29
		s-0.97,1.18-1.29,1.92c-0.32,0.74-0.48,1.53-0.48,2.37v6.9c0.6-0.24,1.34-0.53,2.22-0.87c0.88-0.34,1.76-0.67,2.64-0.99
		c0.88-0.32,1.69-0.62,2.43-0.9c0.74-0.28,1.27-0.48,1.59-0.6c0.72-0.28,1.44-0.7,2.16-1.26c0.72-0.56,1.08-1.34,1.08-2.34
		c0-0.84-0.16-1.62-0.48-2.34c-0.32-0.72-0.75-1.35-1.29-1.89s-1.18-0.97-1.92-1.29C415.54,20.42,414.75,20.26,413.91,20.26z"/>
	<path class="st0" d="M460.29,41.62c1.04,1.64,1.92,3.04,2.64,4.2c0.72,1.16,1.2,1.94,1.44,2.34h-2.34
		c-0.32-0.56-0.73-1.23-1.23-2.01c-0.5-0.78-1.05-1.65-1.65-2.61c-2.39,3.28-5.99,4.92-10.78,4.92c-1.64,0-3.16-0.31-4.58-0.93
		c-1.42-0.62-2.65-1.46-3.71-2.52c-1.06-1.06-1.9-2.3-2.51-3.72c-0.62-1.42-0.93-2.95-0.93-4.59c0-1.64,0.29-3.08,0.87-4.32
		c0.58-1.24,1.34-2.35,2.28-3.33c0.94-0.98,1.99-1.86,3.15-2.64c1.16-0.78,2.32-1.53,3.48-2.25c0.08-0.04,0.14-0.08,0.18-0.12
		c0.04-0.04,0.1-0.08,0.18-0.12c-0.68-1.08-1.24-1.97-1.68-2.67c-0.44-0.7-0.72-1.15-0.84-1.35c-0.68-1.04-1.16-1.93-1.44-2.67
		c-0.28-0.74-0.42-1.65-0.42-2.73c0-0.96,0.19-1.88,0.57-2.76c0.38-0.88,0.89-1.64,1.53-2.28c0.64-0.64,1.39-1.15,2.25-1.53
		c0.86-0.38,1.77-0.57,2.73-0.57s1.87,0.19,2.73,0.57c0.86,0.38,1.61,0.89,2.25,1.53c0.64,0.64,1.15,1.4,1.53,2.28
		c0.38,0.88,0.57,1.8,0.57,2.76c0,1.2-0.19,2.29-0.57,3.27c-0.38,0.98-0.89,1.87-1.53,2.67c-0.64,0.8-1.39,1.53-2.25,2.19
		c-0.86,0.66-1.75,1.29-2.67,1.89c0.68,1.08,1.41,2.25,2.19,3.51c0.78,1.26,1.59,2.55,2.43,3.87c0.84,1.32,1.67,2.64,2.48,3.96
		c0.81,1.32,1.61,2.58,2.39,3.78c1.15-2.76,1.73-6.48,1.73-11.16h1.98C462.75,34.04,461.93,38.42,460.29,41.62z M448.41,46.48
		c4.4,0,7.6-1.6,9.6-4.8c-0.8-1.24-1.64-2.56-2.52-3.96c-0.88-1.4-1.77-2.81-2.67-4.23c-0.9-1.42-1.77-2.8-2.61-4.14
		c-0.84-1.34-1.62-2.59-2.34-3.75c-0.08,0.04-0.15,0.08-0.21,0.12c-0.06,0.04-0.13,0.08-0.21,0.12c-1.12,0.72-2.21,1.43-3.27,2.13
		c-1.06,0.7-2,1.47-2.82,2.31c-0.82,0.84-1.48,1.78-1.98,2.82c-0.5,1.04-0.75,2.24-0.75,3.6c0,1.36,0.26,2.63,0.78,3.81
		c0.52,1.18,1.22,2.21,2.1,3.09c0.88,0.88,1.91,1.58,3.09,2.1C445.78,46.22,447.05,46.48,448.41,46.48z M445.89,18.76
		c0.16,0.2,0.46,0.65,0.9,1.35c0.44,0.7,1,1.59,1.68,2.67c1.68-1.08,3.12-2.26,4.32-3.54c1.2-1.28,1.8-2.88,1.8-4.8
		c0-1.4-0.5-2.6-1.5-3.6c-1-1-2.2-1.5-3.6-1.5c-1.4,0-2.6,0.5-3.6,1.5c-1,1-1.5,2.2-1.5,3.6c0,0.76,0.1,1.43,0.3,2.01
		C444.89,17.03,445.29,17.8,445.89,18.76z"/>
	<path class="st0" d="M494.91,9.58h-8.1v38.58h-1.98V9.58h-8.1V7.6h8.1h1.98h8.1V9.58z"/>
	<path class="st0" d="M505.95,18.28c1.12,0,2.17,0.21,3.15,0.63c0.98,0.42,1.83,0.99,2.55,1.71c0.72,0.72,1.29,1.57,1.71,2.55
		c0.42,0.98,0.63,2.03,0.63,3.15v7.02v14.82h-1.98V33.34v-7.02c0-0.84-0.16-1.63-0.48-2.37c-0.32-0.74-0.75-1.38-1.29-1.92
		s-1.18-0.97-1.92-1.29c-0.74-0.32-1.53-0.48-2.37-0.48s-1.63,0.16-2.37,0.48c-0.74,0.32-1.38,0.75-1.92,1.29s-0.97,1.18-1.29,1.92
		c-0.32,0.74-0.48,1.53-0.48,2.37v7.02v14.82h-1.98V33.34v-7.02V5.14h1.98v15.9c0.76-0.88,1.66-1.56,2.7-2.04
		S504.75,18.28,505.95,18.28z"/>
	<path class="st0" d="M531.15,18.28v1.98h-2.34c-0.84,0-1.62,0.16-2.34,0.48c-0.72,0.32-1.36,0.75-1.92,1.29
		c-0.56,0.54-1,1.18-1.32,1.92c-0.32,0.74-0.48,1.53-0.48,2.37v7.02v14.82h-1.98V33.34v-7.02v-5.76h-1.98v-1.98h1.98h1.98v1.98v0.48
		c1.52-1.76,3.48-2.68,5.88-2.76H531.15z"/>
	<path class="st0" d="M544.77,31.72c-0.36,0.12-0.96,0.35-1.8,0.69c-0.84,0.34-1.75,0.69-2.73,1.05c-0.98,0.36-1.93,0.72-2.85,1.08
		s-1.64,0.62-2.16,0.78v5.1c0,0.84,0.16,1.63,0.48,2.37c0.32,0.74,0.75,1.38,1.29,1.92s1.18,0.97,1.92,1.29s1.53,0.48,2.37,0.48
		s1.63-0.16,2.37-0.48c0.74-0.32,1.38-0.75,1.92-1.29s0.97-1.18,1.29-1.92c0.32-0.74,0.48-1.53,0.48-2.37h1.98
		c0,1.12-0.21,2.17-0.63,3.15c-0.42,0.98-0.99,1.83-1.71,2.55c-0.72,0.72-1.57,1.29-2.55,1.71c-0.98,0.42-2.03,0.63-3.15,0.63
		c-1.12,0-2.17-0.21-3.15-0.63c-0.98-0.42-1.83-0.99-2.55-1.71c-0.72-0.72-1.29-1.57-1.71-2.55c-0.42-0.98-0.63-2.03-0.63-3.15
		v-14.1c0-1.12,0.21-2.17,0.63-3.15c0.42-0.98,0.99-1.83,1.71-2.55s1.57-1.29,2.55-1.71s2.03-0.63,3.15-0.63
		c1.12,0,2.17,0.21,3.15,0.63c0.98,0.42,1.83,0.99,2.55,1.71c0.72,0.72,1.29,1.57,1.71,2.55c0.42,0.98,0.63,2.01,0.63,3.09v0.06
		C549.33,28.8,547.81,30.6,544.77,31.72z M541.29,20.26c-0.84,0-1.63,0.16-2.37,0.48c-0.74,0.32-1.38,0.75-1.92,1.29
		s-0.97,1.18-1.29,1.92c-0.32,0.74-0.48,1.53-0.48,2.37v6.9c0.6-0.24,1.34-0.53,2.22-0.87c0.88-0.34,1.76-0.67,2.64-0.99
		c0.88-0.32,1.69-0.62,2.43-0.9c0.74-0.28,1.27-0.48,1.59-0.6c0.72-0.28,1.44-0.7,2.16-1.26c0.72-0.56,1.08-1.34,1.08-2.34
		c0-0.84-0.16-1.62-0.48-2.34c-0.32-0.72-0.75-1.35-1.29-1.89s-1.18-0.97-1.92-1.29C542.92,20.42,542.13,20.26,541.29,20.26z"/>
	<path class="st0" d="M561.75,18.28c1.12,0,2.14,0.21,3.06,0.63c0.92,0.42,1.71,0.99,2.37,1.71s1.18,1.57,1.56,2.55
		c0.38,0.98,0.57,2.03,0.57,3.15v7.02v7.08v7.74h-1.98V45.7c-0.76,0.84-1.66,1.51-2.7,2.01c-1.04,0.5-2.16,0.75-3.36,0.75
		c-1.12,0-2.17-0.21-3.15-0.63c-0.98-0.42-1.83-0.99-2.55-1.71c-0.72-0.72-1.29-1.57-1.71-2.55c-0.42-0.98-0.63-2.03-0.63-3.15
		v-1.68c0-2.48,1.52-4.28,4.56-5.4c0.36-0.16,0.97-0.4,1.83-0.72c0.86-0.32,1.78-0.67,2.76-1.05c0.98-0.38,1.93-0.74,2.85-1.08
		c0.92-0.34,1.62-0.61,2.1-0.81v-3.36c0-1.68-0.51-3.11-1.53-4.29c-1.02-1.18-2.37-1.77-4.05-1.77c-0.84,0-1.62,0.16-2.34,0.48
		c-0.72,0.32-1.36,0.75-1.92,1.29c-0.56,0.54-1,1.18-1.32,1.92c-0.32,0.74-0.48,1.53-0.48,2.37h-1.98c0-1.12,0.21-2.17,0.63-3.15
		c0.42-0.98,0.99-1.83,1.71-2.55c0.72-0.72,1.57-1.29,2.55-1.71C559.58,18.49,560.63,18.28,561.75,18.28z M567.33,33.34v-1.5
		c-0.6,0.24-1.34,0.52-2.22,0.84c-0.88,0.32-1.76,0.65-2.64,0.99c-0.88,0.34-1.68,0.65-2.4,0.93c-0.72,0.28-1.24,0.48-1.56,0.6
		c-0.76,0.28-1.5,0.7-2.22,1.26c-0.72,0.56-1.08,1.32-1.08,2.28v1.68c0,0.84,0.16,1.63,0.48,2.37c0.32,0.74,0.75,1.38,1.29,1.92
		s1.18,0.97,1.92,1.29s1.53,0.48,2.37,0.48s1.63-0.16,2.37-0.48c0.74-0.32,1.38-0.75,1.92-1.29s0.97-1.18,1.29-1.92
		c0.32-0.74,0.48-1.53,0.48-2.37V33.34z"/>
	<path class="st0" d="M590.19,5.14v21.18v14.1v7.74h-1.98V45.7c-0.76,0.84-1.66,1.51-2.7,2.01c-1.04,0.5-2.16,0.75-3.36,0.75
		c-1.12,0-2.17-0.21-3.15-0.63c-0.98-0.42-1.83-0.99-2.55-1.71c-0.72-0.72-1.29-1.57-1.71-2.55c-0.42-0.98-0.63-2.03-0.63-3.15
		v-14.1c0-1.12,0.21-2.17,0.63-3.15c0.42-0.98,0.99-1.83,1.71-2.55s1.57-1.29,2.55-1.71s2.03-0.63,3.15-0.63
		c1.2,0,2.32,0.24,3.36,0.72c1.04,0.48,1.94,1.16,2.7,2.04V5.14H590.19z M582.15,46.48c0.84,0,1.63-0.16,2.37-0.48
		c0.74-0.32,1.38-0.75,1.92-1.29s0.97-1.18,1.29-1.92c0.32-0.74,0.48-1.53,0.48-2.37v-14.1c0-0.84-0.16-1.63-0.48-2.37
		c-0.32-0.74-0.75-1.38-1.29-1.92s-1.18-0.97-1.92-1.29c-0.74-0.32-1.53-0.48-2.37-0.48s-1.63,0.16-2.37,0.48
		c-0.74,0.32-1.38,0.75-1.92,1.29s-0.97,1.18-1.29,1.92c-0.32,0.74-0.48,1.53-0.48,2.37v14.1c0,0.84,0.16,1.63,0.48,2.37
		c0.32,0.74,0.75,1.38,1.29,1.92s1.18,0.97,1.92,1.29S581.31,46.48,582.15,46.48z"/>
	<path class="st0" d="M606.81,31.72c-0.36,0.12-0.96,0.35-1.8,0.69c-0.84,0.34-1.75,0.69-2.73,1.05c-0.98,0.36-1.93,0.72-2.85,1.08
		s-1.64,0.62-2.16,0.78v5.1c0,0.84,0.16,1.63,0.48,2.37c0.32,0.74,0.75,1.38,1.29,1.92s1.18,0.97,1.92,1.29s1.53,0.48,2.37,0.48
		s1.63-0.16,2.37-0.48c0.74-0.32,1.38-0.75,1.92-1.29s0.97-1.18,1.29-1.92c0.32-0.74,0.48-1.53,0.48-2.37h1.98
		c0,1.12-0.21,2.17-0.63,3.15c-0.42,0.98-0.99,1.83-1.71,2.55c-0.72,0.72-1.57,1.29-2.55,1.71c-0.98,0.42-2.03,0.63-3.15,0.63
		c-1.12,0-2.17-0.21-3.15-0.63c-0.98-0.42-1.83-0.99-2.55-1.71c-0.72-0.72-1.29-1.57-1.71-2.55c-0.42-0.98-0.63-2.03-0.63-3.15
		v-14.1c0-1.12,0.21-2.17,0.63-3.15c0.42-0.98,0.99-1.83,1.71-2.55s1.57-1.29,2.55-1.71s2.03-0.63,3.15-0.63
		c1.12,0,2.17,0.21,3.15,0.63c0.98,0.42,1.83,0.99,2.55,1.71c0.72,0.72,1.29,1.57,1.71,2.55c0.42,0.98,0.63,2.01,0.63,3.09v0.06
		C611.37,28.8,609.85,30.6,606.81,31.72z M603.33,20.26c-0.84,0-1.63,0.16-2.37,0.48c-0.74,0.32-1.38,0.75-1.92,1.29
		s-0.97,1.18-1.29,1.92c-0.32,0.74-0.48,1.53-0.48,2.37v6.9c0.6-0.24,1.34-0.53,2.22-0.87c0.88-0.34,1.76-0.67,2.64-0.99
		c0.88-0.32,1.69-0.62,2.43-0.9c0.74-0.28,1.27-0.48,1.59-0.6c0.72-0.28,1.44-0.7,2.16-1.26c0.72-0.56,1.08-1.34,1.08-2.34
		c0-0.84-0.16-1.62-0.48-2.34c-0.32-0.72-0.75-1.35-1.29-1.89s-1.18-0.97-1.92-1.29C604.96,20.42,604.17,20.26,603.33,20.26z"/>
	<path class="st0" d="M632.25,5.14v21.18v14.1v7.74h-1.98V45.7c-0.76,0.84-1.66,1.51-2.7,2.01c-1.04,0.5-2.16,0.75-3.36,0.75
		c-1.12,0-2.17-0.21-3.15-0.63c-0.98-0.42-1.83-0.99-2.55-1.71c-0.72-0.72-1.29-1.57-1.71-2.55c-0.42-0.98-0.63-2.03-0.63-3.15
		v-14.1c0-1.12,0.21-2.17,0.63-3.15c0.42-0.98,0.99-1.83,1.71-2.55s1.57-1.29,2.55-1.71s2.03-0.63,3.15-0.63
		c1.2,0,2.32,0.24,3.36,0.72c1.04,0.48,1.94,1.16,2.7,2.04V5.14H632.25z M624.21,46.48c0.84,0,1.63-0.16,2.37-0.48
		c0.74-0.32,1.38-0.75,1.92-1.29s0.97-1.18,1.29-1.92c0.32-0.74,0.48-1.53,0.48-2.37v-14.1c0-0.84-0.16-1.63-0.48-2.37
		c-0.32-0.74-0.75-1.38-1.29-1.92s-1.18-0.97-1.92-1.29c-0.74-0.32-1.53-0.48-2.37-0.48s-1.63,0.16-2.37,0.48
		c-0.74,0.32-1.38,0.75-1.92,1.29s-0.97,1.18-1.29,1.92c-0.32,0.74-0.48,1.53-0.48,2.37v14.1c0,0.84,0.16,1.63,0.48,2.37
		c0.32,0.74,0.75,1.38,1.29,1.92s1.18,0.97,1.92,1.29S623.37,46.48,624.21,46.48z"/>
	<path class="st0" d="M53.43,79.6c1.2,0,2.31,0.23,3.33,0.69s1.92,1.08,2.7,1.86c0.78,0.78,1.39,1.69,1.83,2.73
		c0.44,1.04,0.66,2.14,0.66,3.3v8.28c0,1.16-0.21,2.24-0.63,3.24c-0.42,1-1,1.88-1.74,2.64c-0.74,0.76-1.6,1.38-2.58,1.86
		c-0.98,0.48-2.03,0.76-3.15,0.84h-0.3h-0.24h-5.82v15.12h-1.98V79.6h1.02h0.96H53.43z M59.97,88.18c0-0.88-0.18-1.72-0.54-2.52
		c-0.36-0.8-0.84-1.5-1.44-2.1s-1.3-1.08-2.1-1.44c-0.8-0.36-1.66-0.54-2.58-0.54h-5.82v21.48h5.94c0.92,0,1.78-0.18,2.58-0.54
		c0.8-0.36,1.49-0.84,2.07-1.44c0.58-0.6,1.04-1.29,1.38-2.07c0.34-0.78,0.51-1.63,0.51-2.55V88.18z"/>
	<path class="st0" d="M82.83,90.58l-10.5,43.02h-2.04l3.12-12.96l-8.46-30.06h2.04l7.38,26.16l6.42-26.16H82.83z"/>
	<path class="st0" d="M87.81,105.34v7.08c0,0.84,0.14,1.63,0.42,2.37c0.28,0.74,0.66,1.38,1.14,1.92s1.04,0.97,1.68,1.29
		c0.64,0.32,1.32,0.48,2.04,0.48v1.98c-1,0-1.94-0.21-2.82-0.63c-0.88-0.42-1.65-0.99-2.31-1.71c-0.66-0.72-1.18-1.57-1.56-2.55
		c-0.38-0.98-0.57-2.03-0.57-3.15v-7.08V92.56v-1.98v-8.4h1.98v8.4h6.48v1.98h-6.48V105.34z"/>
	<path class="st0" d="M105.93,90.28c1.12,0,2.17,0.21,3.15,0.63c0.98,0.42,1.83,0.99,2.55,1.71c0.72,0.72,1.29,1.57,1.71,2.55
		c0.42,0.98,0.63,2.03,0.63,3.15v7.02v14.82h-1.98v-14.82v-7.02c0-0.84-0.16-1.63-0.48-2.37c-0.32-0.74-0.75-1.38-1.29-1.92
		s-1.18-0.97-1.92-1.29c-0.74-0.32-1.53-0.48-2.37-0.48s-1.63,0.16-2.37,0.48c-0.74,0.32-1.38,0.75-1.92,1.29s-0.97,1.18-1.29,1.92
		c-0.32,0.74-0.48,1.53-0.48,2.37v7.02v14.82h-1.98v-14.82v-7.02V77.14h1.98v15.9c0.76-0.88,1.66-1.56,2.7-2.04
		C103.61,90.52,104.73,90.28,105.93,90.28z"/>
	<path class="st0" d="M126.81,120.46c-1.12,0-2.17-0.21-3.15-0.63c-0.98-0.42-1.83-0.99-2.55-1.71c-0.72-0.72-1.29-1.57-1.71-2.55
		c-0.42-0.98-0.63-2.03-0.63-3.15v-14.1c0-1.12,0.21-2.17,0.63-3.15s0.99-1.83,1.71-2.55c0.72-0.72,1.57-1.29,2.55-1.71
		c0.98-0.42,2.03-0.63,3.15-0.63c1.12,0,2.17,0.21,3.15,0.63c0.98,0.42,1.83,0.99,2.55,1.71c0.72,0.72,1.29,1.57,1.71,2.55
		c0.42,0.98,0.63,2.03,0.63,3.15v14.1c0,1.12-0.21,2.17-0.63,3.15c-0.42,0.98-0.99,1.83-1.71,2.55c-0.72,0.72-1.57,1.29-2.55,1.71
		C128.98,120.25,127.93,120.46,126.81,120.46z M126.81,92.26c-0.84,0-1.63,0.16-2.37,0.48c-0.74,0.32-1.38,0.75-1.92,1.29
		s-0.97,1.18-1.29,1.92c-0.32,0.74-0.48,1.53-0.48,2.37v14.1c0,0.84,0.16,1.63,0.48,2.37c0.32,0.74,0.75,1.38,1.29,1.92
		s1.18,0.97,1.92,1.29c0.74,0.32,1.53,0.48,2.37,0.48s1.63-0.16,2.37-0.48c0.74-0.32,1.38-0.75,1.92-1.29s0.97-1.18,1.29-1.92
		c0.32-0.74,0.48-1.53,0.48-2.37v-14.1c0-0.84-0.16-1.63-0.48-2.37c-0.32-0.74-0.75-1.38-1.29-1.92s-1.18-0.97-1.92-1.29
		C128.44,92.42,127.65,92.26,126.81,92.26z"/>
	<path class="st0" d="M147.69,90.28c1.12,0,2.17,0.21,3.15,0.63c0.98,0.42,1.83,0.99,2.55,1.71c0.72,0.72,1.29,1.57,1.71,2.55
		c0.42,0.98,0.63,2.03,0.63,3.15v7.02v14.82h-1.98v-14.82v-7.02c0-0.84-0.16-1.63-0.48-2.37c-0.32-0.74-0.75-1.38-1.29-1.92
		s-1.18-0.97-1.92-1.29c-0.74-0.32-1.53-0.48-2.37-0.48s-1.63,0.16-2.37,0.48c-0.74,0.32-1.38,0.75-1.92,1.29s-0.97,1.18-1.29,1.92
		c-0.32,0.74-0.48,1.53-0.48,2.37v7.02v14.82h-1.98v-14.82v-7.02v-7.74h1.98v2.46c0.76-0.88,1.66-1.56,2.7-2.04
		C145.37,90.52,146.49,90.28,147.69,90.28z"/>
	<path class="st0" d="M190.65,79.6l-8.82,40.56h-2.64l-8.76-40.56h2.04l8.04,37.26l8.1-37.26H190.65z"/>
	<path class="st0" d="M196.29,90.1h1.98v2.04v27.6h-1.98v-27.6h-1.98V90.1H196.29z M196.77,83.26c-0.44,0-0.8-0.14-1.08-0.42
		c-0.28-0.28-0.42-0.64-0.42-1.08c0-0.44,0.14-0.8,0.42-1.08c0.28-0.28,0.64-0.42,1.08-0.42c0.4,0,0.75,0.14,1.05,0.42
		c0.3,0.28,0.45,0.64,0.45,1.08c0,0.44-0.15,0.8-0.45,1.08C197.52,83.12,197.17,83.26,196.77,83.26z"/>
	<path class="st0" d="M219.15,77.14v21.18v14.1v7.74h-1.98v-2.46c-0.76,0.84-1.66,1.51-2.7,2.01c-1.04,0.5-2.16,0.75-3.36,0.75
		c-1.12,0-2.17-0.21-3.15-0.63c-0.98-0.42-1.83-0.99-2.55-1.71c-0.72-0.72-1.29-1.57-1.71-2.55c-0.42-0.98-0.63-2.03-0.63-3.15
		v-14.1c0-1.12,0.21-2.17,0.63-3.15s0.99-1.83,1.71-2.55c0.72-0.72,1.57-1.29,2.55-1.71c0.98-0.42,2.03-0.63,3.15-0.63
		c1.2,0,2.32,0.24,3.36,0.72c1.04,0.48,1.94,1.16,2.7,2.04v-15.9H219.15z M211.11,118.48c0.84,0,1.63-0.16,2.37-0.48
		c0.74-0.32,1.38-0.75,1.92-1.29s0.97-1.18,1.29-1.92c0.32-0.74,0.48-1.53,0.48-2.37v-14.1c0-0.84-0.16-1.63-0.48-2.37
		c-0.32-0.74-0.75-1.38-1.29-1.92s-1.18-0.97-1.92-1.29c-0.74-0.32-1.53-0.48-2.37-0.48s-1.63,0.16-2.37,0.48
		c-0.74,0.32-1.38,0.75-1.92,1.29s-0.97,1.18-1.29,1.92c-0.32,0.74-0.48,1.53-0.48,2.37v14.1c0,0.84,0.16,1.63,0.48,2.37
		c0.32,0.74,0.75,1.38,1.29,1.92s1.18,0.97,1.92,1.29C209.48,118.32,210.27,118.48,211.11,118.48z"/>
	<path class="st0" d="M235.77,103.72c-0.36,0.12-0.96,0.35-1.8,0.69c-0.84,0.34-1.75,0.69-2.73,1.05c-0.98,0.36-1.93,0.72-2.85,1.08
		c-0.92,0.36-1.64,0.62-2.16,0.78v5.1c0,0.84,0.16,1.63,0.48,2.37c0.32,0.74,0.75,1.38,1.29,1.92s1.18,0.97,1.92,1.29
		c0.74,0.32,1.53,0.48,2.37,0.48s1.63-0.16,2.37-0.48c0.74-0.32,1.38-0.75,1.92-1.29s0.97-1.18,1.29-1.92
		c0.32-0.74,0.48-1.53,0.48-2.37h1.98c0,1.12-0.21,2.17-0.63,3.15c-0.42,0.98-0.99,1.83-1.71,2.55c-0.72,0.72-1.57,1.29-2.55,1.71
		c-0.98,0.42-2.03,0.63-3.15,0.63c-1.12,0-2.17-0.21-3.15-0.63c-0.98-0.42-1.83-0.99-2.55-1.71c-0.72-0.72-1.29-1.57-1.71-2.55
		c-0.42-0.98-0.63-2.03-0.63-3.15v-14.1c0-1.12,0.21-2.17,0.63-3.15s0.99-1.83,1.71-2.55c0.72-0.72,1.57-1.29,2.55-1.71
		c0.98-0.42,2.03-0.63,3.15-0.63c1.12,0,2.17,0.21,3.15,0.63c0.98,0.42,1.83,0.99,2.55,1.71c0.72,0.72,1.29,1.57,1.71,2.55
		c0.42,0.98,0.63,2.01,0.63,3.09v0.06C240.33,100.8,238.81,102.6,235.77,103.72z M232.29,92.26c-0.84,0-1.63,0.16-2.37,0.48
		c-0.74,0.32-1.38,0.75-1.92,1.29s-0.97,1.18-1.29,1.92c-0.32,0.74-0.48,1.53-0.48,2.37v6.9c0.6-0.24,1.34-0.53,2.22-0.87
		c0.88-0.34,1.76-0.67,2.64-0.99c0.88-0.32,1.69-0.62,2.43-0.9c0.74-0.28,1.27-0.48,1.59-0.6c0.72-0.28,1.44-0.7,2.16-1.26
		c0.72-0.56,1.08-1.34,1.08-2.34c0-0.84-0.16-1.62-0.48-2.34c-0.32-0.72-0.75-1.35-1.29-1.89s-1.18-0.97-1.92-1.29
		C233.92,92.42,233.13,92.26,232.29,92.26z"/>
	<path class="st0" d="M253.17,120.46c-1.12,0-2.17-0.21-3.15-0.63c-0.98-0.42-1.83-0.99-2.55-1.71c-0.72-0.72-1.29-1.57-1.71-2.55
		c-0.42-0.98-0.63-2.03-0.63-3.15v-14.1c0-1.12,0.21-2.17,0.63-3.15s0.99-1.83,1.71-2.55c0.72-0.72,1.57-1.29,2.55-1.71
		c0.98-0.42,2.03-0.63,3.15-0.63c1.12,0,2.17,0.21,3.15,0.63c0.98,0.42,1.83,0.99,2.55,1.71c0.72,0.72,1.29,1.57,1.71,2.55
		c0.42,0.98,0.63,2.03,0.63,3.15v14.1c0,1.12-0.21,2.17-0.63,3.15c-0.42,0.98-0.99,1.83-1.71,2.55c-0.72,0.72-1.57,1.29-2.55,1.71
		C255.34,120.25,254.29,120.46,253.17,120.46z M253.17,92.26c-0.84,0-1.63,0.16-2.37,0.48c-0.74,0.32-1.38,0.75-1.92,1.29
		s-0.97,1.18-1.29,1.92c-0.32,0.74-0.48,1.53-0.48,2.37v14.1c0,0.84,0.16,1.63,0.48,2.37c0.32,0.74,0.75,1.38,1.29,1.92
		s1.18,0.97,1.92,1.29c0.74,0.32,1.53,0.48,2.37,0.48s1.63-0.16,2.37-0.48c0.74-0.32,1.38-0.75,1.92-1.29s0.97-1.18,1.29-1.92
		c0.32-0.74,0.48-1.53,0.48-2.37v-14.1c0-0.84-0.16-1.63-0.48-2.37c-0.32-0.74-0.75-1.38-1.29-1.92s-1.18-0.97-1.92-1.29
		C254.8,92.42,254.01,92.26,253.17,92.26z"/>
	<path class="st0" d="M283.83,79.6c1.2,0,2.31,0.23,3.33,0.69s1.92,1.08,2.7,1.86s1.39,1.69,1.83,2.73c0.44,1.04,0.66,2.14,0.66,3.3
		v8.28c0,1.16-0.21,2.24-0.63,3.24c-0.42,1-1,1.88-1.74,2.64c-0.74,0.76-1.6,1.38-2.58,1.86c-0.98,0.48-2.03,0.76-3.15,0.84h-0.3
		h-0.24h-5.82v15.12h-1.98V79.6h1.02h0.96H283.83z M290.37,88.18c0-0.88-0.18-1.72-0.54-2.52c-0.36-0.8-0.84-1.5-1.44-2.1
		c-0.6-0.6-1.3-1.08-2.1-1.44c-0.8-0.36-1.66-0.54-2.58-0.54h-5.82v21.48h5.94c0.92,0,1.78-0.18,2.58-0.54
		c0.8-0.36,1.49-0.84,2.07-1.44c0.58-0.6,1.04-1.29,1.38-2.07c0.34-0.78,0.51-1.63,0.51-2.55V88.18z"/>
	<path class="st0" d="M309.51,90.28v1.98h-2.34c-0.84,0-1.62,0.16-2.34,0.48c-0.72,0.32-1.36,0.75-1.92,1.29
		c-0.56,0.54-1,1.18-1.32,1.92c-0.32,0.74-0.48,1.53-0.48,2.37v7.02v14.82h-1.98v-14.82v-7.02v-5.76h-1.98v-1.98h1.98h1.98v1.98
		v0.48c1.52-1.76,3.48-2.68,5.88-2.76H309.51z"/>
	<path class="st0" d="M320.55,120.46c-1.12,0-2.17-0.21-3.15-0.63c-0.98-0.42-1.83-0.99-2.55-1.71c-0.72-0.72-1.29-1.57-1.71-2.55
		c-0.42-0.98-0.63-2.03-0.63-3.15v-14.1c0-1.12,0.21-2.17,0.63-3.15s0.99-1.83,1.71-2.55c0.72-0.72,1.57-1.29,2.55-1.71
		c0.98-0.42,2.03-0.63,3.15-0.63c1.12,0,2.17,0.21,3.15,0.63c0.98,0.42,1.83,0.99,2.55,1.71c0.72,0.72,1.29,1.57,1.71,2.55
		s0.63,2.03,0.63,3.15v14.1c0,1.12-0.21,2.17-0.63,3.15c-0.42,0.98-0.99,1.83-1.71,2.55c-0.72,0.72-1.57,1.29-2.55,1.71
		C322.72,120.25,321.67,120.46,320.55,120.46z M320.55,92.26c-0.84,0-1.63,0.16-2.37,0.48c-0.74,0.32-1.38,0.75-1.92,1.29
		s-0.97,1.18-1.29,1.92c-0.32,0.74-0.48,1.53-0.48,2.37v14.1c0,0.84,0.16,1.63,0.48,2.37c0.32,0.74,0.75,1.38,1.29,1.92
		s1.18,0.97,1.92,1.29s1.53,0.48,2.37,0.48s1.63-0.16,2.37-0.48c0.74-0.32,1.38-0.75,1.92-1.29s0.97-1.18,1.29-1.92
		c0.32-0.74,0.48-1.53,0.48-2.37v-14.1c0-0.84-0.16-1.63-0.48-2.37c-0.32-0.74-0.75-1.38-1.29-1.92s-1.18-0.97-1.92-1.29
		C322.18,92.42,321.39,92.26,320.55,92.26z"/>
	<path class="st0" d="M341.43,118.48c0.84,0,1.63-0.16,2.37-0.48c0.74-0.32,1.38-0.75,1.92-1.29s0.97-1.18,1.29-1.92
		c0.32-0.74,0.48-1.53,0.48-2.37h1.98c0,1.12-0.21,2.17-0.63,3.15c-0.42,0.98-0.99,1.83-1.71,2.55c-0.72,0.72-1.57,1.29-2.55,1.71
		c-0.98,0.42-2.03,0.63-3.15,0.63c-1.12,0-2.17-0.21-3.15-0.63c-0.98-0.42-1.83-0.99-2.55-1.71c-0.72-0.72-1.29-1.57-1.71-2.55
		c-0.42-0.98-0.63-2.03-0.63-3.15v-14.1c0-1.12,0.21-2.17,0.63-3.15s0.99-1.83,1.71-2.55c0.72-0.72,1.57-1.29,2.55-1.71
		c0.98-0.42,2.03-0.63,3.15-0.63c1.12,0,2.17,0.21,3.15,0.63c0.98,0.42,1.83,0.99,2.55,1.71c0.72,0.72,1.29,1.57,1.71,2.55
		s0.63,2.03,0.63,3.15h-1.98c0-0.84-0.16-1.63-0.48-2.37c-0.32-0.74-0.75-1.38-1.29-1.92s-1.18-0.97-1.92-1.29
		c-0.74-0.32-1.53-0.48-2.37-0.48s-1.63,0.16-2.37,0.48c-0.74,0.32-1.38,0.75-1.92,1.29s-0.97,1.18-1.29,1.92
		c-0.32,0.74-0.48,1.53-0.48,2.37v14.1c0,0.84,0.16,1.63,0.48,2.37c0.32,0.74,0.75,1.38,1.29,1.92s1.18,0.97,1.92,1.29
		S340.59,118.48,341.43,118.48z"/>
	<path class="st0" d="M365.79,103.72c-0.36,0.12-0.96,0.35-1.8,0.69c-0.84,0.34-1.75,0.69-2.73,1.05c-0.98,0.36-1.93,0.72-2.85,1.08
		c-0.92,0.36-1.64,0.62-2.16,0.78v5.1c0,0.84,0.16,1.63,0.48,2.37c0.32,0.74,0.75,1.38,1.29,1.92s1.18,0.97,1.92,1.29
		s1.53,0.48,2.37,0.48s1.63-0.16,2.37-0.48c0.74-0.32,1.38-0.75,1.92-1.29s0.97-1.18,1.29-1.92c0.32-0.74,0.48-1.53,0.48-2.37h1.98
		c0,1.12-0.21,2.17-0.63,3.15c-0.42,0.98-0.99,1.83-1.71,2.55c-0.72,0.72-1.57,1.29-2.55,1.71c-0.98,0.42-2.03,0.63-3.15,0.63
		c-1.12,0-2.17-0.21-3.15-0.63c-0.98-0.42-1.83-0.99-2.55-1.71c-0.72-0.72-1.29-1.57-1.71-2.55c-0.42-0.98-0.63-2.03-0.63-3.15
		v-14.1c0-1.12,0.21-2.17,0.63-3.15s0.99-1.83,1.71-2.55c0.72-0.72,1.57-1.29,2.55-1.71c0.98-0.42,2.03-0.63,3.15-0.63
		c1.12,0,2.17,0.21,3.15,0.63c0.98,0.42,1.83,0.99,2.55,1.71c0.72,0.72,1.29,1.57,1.71,2.55s0.63,2.01,0.63,3.09v0.06
		C370.35,100.8,368.83,102.6,365.79,103.72z M362.31,92.26c-0.84,0-1.63,0.16-2.37,0.48c-0.74,0.32-1.38,0.75-1.92,1.29
		s-0.97,1.18-1.29,1.92c-0.32,0.74-0.48,1.53-0.48,2.37v6.9c0.6-0.24,1.34-0.53,2.22-0.87c0.88-0.34,1.76-0.67,2.64-0.99
		c0.88-0.32,1.69-0.62,2.43-0.9c0.74-0.28,1.27-0.48,1.59-0.6c0.72-0.28,1.44-0.7,2.16-1.26c0.72-0.56,1.08-1.34,1.08-2.34
		c0-0.84-0.16-1.62-0.48-2.34c-0.32-0.72-0.75-1.35-1.29-1.89s-1.18-0.97-1.92-1.29C363.94,92.42,363.15,92.26,362.31,92.26z"/>
	<path class="st0" d="M383.07,104.44c0.88,0.44,1.77,0.91,2.67,1.41c0.9,0.5,1.71,1.07,2.43,1.71c0.72,0.64,1.31,1.35,1.77,2.13
		s0.69,1.69,0.69,2.73c0,1.12-0.21,2.17-0.63,3.15c-0.42,0.98-0.99,1.83-1.71,2.55c-0.72,0.72-1.57,1.29-2.55,1.71
		c-0.98,0.42-2.03,0.63-3.15,0.63c-1.12,0-2.17-0.21-3.15-0.63c-0.98-0.42-1.83-0.99-2.55-1.71c-0.72-0.72-1.29-1.57-1.71-2.55
		c-0.42-0.98-0.63-2.03-0.63-3.15h1.98c0,0.84,0.16,1.63,0.48,2.37c0.32,0.74,0.75,1.38,1.29,1.92s1.18,0.97,1.92,1.29
		s1.53,0.48,2.37,0.48s1.63-0.16,2.37-0.48c0.74-0.32,1.38-0.75,1.92-1.29s0.97-1.18,1.29-1.92c0.32-0.74,0.48-1.53,0.48-2.37
		c0-0.72-0.18-1.37-0.54-1.95c-0.36-0.58-0.84-1.11-1.44-1.59c-0.6-0.48-1.29-0.93-2.07-1.35s-1.59-0.85-2.43-1.29
		c-0.92-0.44-1.83-0.91-2.73-1.41c-0.9-0.5-1.71-1.06-2.43-1.68c-0.72-0.62-1.31-1.32-1.77-2.1c-0.46-0.78-0.69-1.69-0.69-2.73
		c0-1.12,0.21-2.17,0.63-3.15s0.99-1.83,1.71-2.55c0.72-0.72,1.57-1.29,2.55-1.71c0.98-0.42,2.03-0.63,3.15-0.63
		c1.12,0,2.17,0.21,3.15,0.63c0.98,0.42,1.83,0.99,2.55,1.71c0.72,0.72,1.29,1.57,1.71,2.55s0.63,2.03,0.63,3.15h-1.98
		c0-0.84-0.16-1.63-0.48-2.37c-0.32-0.74-0.75-1.38-1.29-1.92s-1.18-0.97-1.92-1.29c-0.74-0.32-1.53-0.48-2.37-0.48
		s-1.63,0.16-2.37,0.48c-0.74,0.32-1.38,0.75-1.92,1.29s-0.97,1.18-1.29,1.92c-0.32,0.74-0.48,1.53-0.48,2.37
		c0,0.72,0.18,1.37,0.54,1.95c0.36,0.58,0.85,1.11,1.47,1.59c0.62,0.48,1.32,0.93,2.1,1.35S382.23,104.04,383.07,104.44z"/>
	<path class="st0" d="M403.65,104.44c0.88,0.44,1.77,0.91,2.67,1.41c0.9,0.5,1.71,1.07,2.43,1.71c0.72,0.64,1.31,1.35,1.77,2.13
		s0.69,1.69,0.69,2.73c0,1.12-0.21,2.17-0.63,3.15c-0.42,0.98-0.99,1.83-1.71,2.55c-0.72,0.72-1.57,1.29-2.55,1.71
		c-0.98,0.42-2.03,0.63-3.15,0.63c-1.12,0-2.17-0.21-3.15-0.63c-0.98-0.42-1.83-0.99-2.55-1.71c-0.72-0.72-1.29-1.57-1.71-2.55
		c-0.42-0.98-0.63-2.03-0.63-3.15h1.98c0,0.84,0.16,1.63,0.48,2.37c0.32,0.74,0.75,1.38,1.29,1.92s1.18,0.97,1.92,1.29
		s1.53,0.48,2.37,0.48s1.63-0.16,2.37-0.48c0.74-0.32,1.38-0.75,1.92-1.29s0.97-1.18,1.29-1.92c0.32-0.74,0.48-1.53,0.48-2.37
		c0-0.72-0.18-1.37-0.54-1.95c-0.36-0.58-0.84-1.11-1.44-1.59c-0.6-0.48-1.29-0.93-2.07-1.35s-1.59-0.85-2.43-1.29
		c-0.92-0.44-1.83-0.91-2.73-1.41c-0.9-0.5-1.71-1.06-2.43-1.68c-0.72-0.62-1.31-1.32-1.77-2.1c-0.46-0.78-0.69-1.69-0.69-2.73
		c0-1.12,0.21-2.17,0.63-3.15s0.99-1.83,1.71-2.55c0.72-0.72,1.57-1.29,2.55-1.71c0.98-0.42,2.03-0.63,3.15-0.63
		c1.12,0,2.17,0.21,3.15,0.63c0.98,0.42,1.83,0.99,2.55,1.71c0.72,0.72,1.29,1.57,1.71,2.55s0.63,2.03,0.63,3.15h-1.98
		c0-0.84-0.16-1.63-0.48-2.37c-0.32-0.74-0.75-1.38-1.29-1.92s-1.18-0.97-1.92-1.29c-0.74-0.32-1.53-0.48-2.37-0.48
		s-1.63,0.16-2.37,0.48c-0.74,0.32-1.38,0.75-1.92,1.29s-0.97,1.18-1.29,1.92c-0.32,0.74-0.48,1.53-0.48,2.37
		c0,0.72,0.18,1.37,0.54,1.95c0.36,0.58,0.85,1.11,1.47,1.59c0.62,0.48,1.32,0.93,2.1,1.35S402.81,104.04,403.65,104.44z"/>
	<path class="st0" d="M416.55,90.1h1.98v2.04v27.6h-1.98v-27.6h-1.98V90.1H416.55z M417.03,83.26c-0.44,0-0.8-0.14-1.08-0.42
		c-0.28-0.28-0.42-0.64-0.42-1.08c0-0.44,0.14-0.8,0.42-1.08c0.28-0.28,0.64-0.42,1.08-0.42c0.4,0,0.75,0.14,1.05,0.42
		c0.3,0.28,0.45,0.64,0.45,1.08c0,0.44-0.15,0.8-0.45,1.08C417.78,83.12,417.43,83.26,417.03,83.26z"/>
	<path class="st0" d="M432.57,90.28c1.12,0,2.17,0.21,3.15,0.63c0.98,0.42,1.83,0.99,2.55,1.71c0.72,0.72,1.29,1.57,1.71,2.55
		s0.63,2.03,0.63,3.15v7.02v14.82h-1.98v-14.82v-7.02c0-0.84-0.16-1.63-0.48-2.37c-0.32-0.74-0.75-1.38-1.29-1.92
		s-1.18-0.97-1.92-1.29c-0.74-0.32-1.53-0.48-2.37-0.48s-1.63,0.16-2.37,0.48c-0.74,0.32-1.38,0.75-1.92,1.29s-0.97,1.18-1.29,1.92
		c-0.32,0.74-0.48,1.53-0.48,2.37v7.02v14.82h-1.98v-14.82v-7.02v-7.74h1.98v2.46c0.76-0.88,1.66-1.56,2.7-2.04
		C430.25,90.52,431.37,90.28,432.57,90.28z"/>
	<path class="st0" d="M461.49,90.58v7.74v14.1v13.62c0,1.12-0.21,2.17-0.63,3.15c-0.42,0.98-0.99,1.83-1.71,2.55
		c-0.72,0.72-1.57,1.29-2.55,1.71c-0.98,0.42-2.03,0.63-3.15,0.63c-1.12,0-2.17-0.21-3.15-0.63s-1.83-0.99-2.55-1.71
		c-0.72-0.72-1.29-1.57-1.71-2.55c-0.42-0.98-0.63-2.03-0.63-3.15h1.98c0,0.84,0.16,1.62,0.48,2.34c0.32,0.72,0.75,1.36,1.29,1.92
		c0.54,0.56,1.18,1,1.92,1.32s1.53,0.48,2.37,0.48s1.63-0.16,2.37-0.48c0.74-0.32,1.38-0.76,1.92-1.32c0.54-0.56,0.97-1.2,1.29-1.92
		c0.32-0.72,0.48-1.5,0.48-2.34v-8.34c-0.76,0.84-1.66,1.51-2.7,2.01c-1.04,0.5-2.16,0.75-3.36,0.75c-1.12,0-2.17-0.21-3.15-0.63
		c-0.98-0.42-1.83-0.99-2.55-1.71c-0.72-0.72-1.29-1.57-1.71-2.55c-0.42-0.98-0.63-2.03-0.63-3.15v-14.1c0-1.12,0.21-2.17,0.63-3.15
		s0.99-1.83,1.71-2.55c0.72-0.72,1.57-1.29,2.55-1.71c0.98-0.42,2.03-0.63,3.15-0.63c1.2,0,2.32,0.24,3.36,0.72
		c1.04,0.48,1.94,1.16,2.7,2.04v-2.46H461.49z M453.45,118.48c0.84,0,1.63-0.16,2.37-0.48c0.74-0.32,1.38-0.75,1.92-1.29
		s0.97-1.18,1.29-1.92c0.32-0.74,0.48-1.53,0.48-2.37v-14.1c0-0.84-0.16-1.63-0.48-2.37c-0.32-0.74-0.75-1.38-1.29-1.92
		s-1.18-0.97-1.92-1.29c-0.74-0.32-1.53-0.48-2.37-0.48s-1.63,0.16-2.37,0.48c-0.74,0.32-1.38,0.75-1.92,1.29s-0.97,1.18-1.29,1.92
		c-0.32,0.74-0.48,1.53-0.48,2.37v14.1c0,0.84,0.16,1.63,0.48,2.37c0.32,0.74,0.75,1.38,1.29,1.92s1.18,0.97,1.92,1.29
		S452.61,118.48,453.45,118.48z"/>
	<path class="st0" d="M491.01,118.18v1.98h-12.84h-1.98V79.6h1.98v38.58H491.01z"/>
	<path class="st0" d="M495.45,90.1h1.98v2.04v27.6h-1.98v-27.6h-1.98V90.1H495.45z M495.93,83.26c-0.44,0-0.8-0.14-1.08-0.42
		c-0.28-0.28-0.42-0.64-0.42-1.08c0-0.44,0.14-0.8,0.42-1.08c0.28-0.28,0.64-0.42,1.08-0.42c0.4,0,0.75,0.14,1.05,0.42
		c0.3,0.28,0.45,0.64,0.45,1.08c0,0.44-0.15,0.8-0.45,1.08C496.68,83.12,496.33,83.26,495.93,83.26z"/>
	<path class="st0" d="M510.27,90.28c1.12,0,2.17,0.21,3.15,0.63c0.98,0.42,1.83,0.99,2.55,1.71c0.72,0.72,1.29,1.57,1.71,2.55
		s0.63,2.03,0.63,3.15v14.1c0,1.12-0.21,2.17-0.63,3.15c-0.42,0.98-0.99,1.83-1.71,2.55c-0.72,0.72-1.57,1.29-2.55,1.71
		c-0.98,0.42-2.03,0.63-3.15,0.63c-1.2,0-2.32-0.25-3.36-0.75c-1.04-0.5-1.94-1.17-2.7-2.01v2.46h-1.98v-7.74v-14.1V77.14h1.98v15.9
		c0.76-0.88,1.66-1.56,2.7-2.04C507.95,90.52,509.07,90.28,510.27,90.28z M516.33,98.32c0-0.84-0.16-1.63-0.48-2.37
		c-0.32-0.74-0.75-1.38-1.29-1.92s-1.18-0.97-1.92-1.29c-0.74-0.32-1.53-0.48-2.37-0.48s-1.63,0.16-2.37,0.48
		c-0.74,0.32-1.38,0.75-1.92,1.29s-0.97,1.18-1.29,1.92c-0.32,0.74-0.48,1.53-0.48,2.37v14.1c0,0.84,0.16,1.63,0.48,2.37
		c0.32,0.74,0.75,1.38,1.29,1.92s1.18,0.97,1.92,1.29s1.53,0.48,2.37,0.48s1.63-0.16,2.37-0.48c0.74-0.32,1.38-0.75,1.92-1.29
		s0.97-1.18,1.29-1.92c0.32-0.74,0.48-1.53,0.48-2.37V98.32z"/>
	<path class="st0" d="M535.47,90.28v1.98h-2.34c-0.84,0-1.62,0.16-2.34,0.48c-0.72,0.32-1.36,0.75-1.92,1.29
		c-0.56,0.54-1,1.18-1.32,1.92c-0.32,0.74-0.48,1.53-0.48,2.37v7.02v14.82h-1.98v-14.82v-7.02v-5.76h-1.98v-1.98h1.98h1.98v1.98
		v0.48c1.52-1.76,3.48-2.68,5.88-2.76H535.47z"/>
	<path class="st0" d="M545.79,90.28c1.12,0,2.14,0.21,3.06,0.63c0.92,0.42,1.71,0.99,2.37,1.71c0.66,0.72,1.18,1.57,1.56,2.55
		c0.38,0.98,0.57,2.03,0.57,3.15v7.02v7.08v7.74h-1.98v-2.46c-0.76,0.84-1.66,1.51-2.7,2.01c-1.04,0.5-2.16,0.75-3.36,0.75
		c-1.12,0-2.17-0.21-3.15-0.63c-0.98-0.42-1.83-0.99-2.55-1.71c-0.72-0.72-1.29-1.57-1.71-2.55c-0.42-0.98-0.63-2.03-0.63-3.15
		v-1.68c0-2.48,1.52-4.28,4.56-5.4c0.36-0.16,0.97-0.4,1.83-0.72c0.86-0.32,1.78-0.67,2.76-1.05c0.98-0.38,1.93-0.74,2.85-1.08
		c0.92-0.34,1.62-0.61,2.1-0.81v-3.36c0-1.68-0.51-3.11-1.53-4.29c-1.02-1.18-2.37-1.77-4.05-1.77c-0.84,0-1.62,0.16-2.34,0.48
		c-0.72,0.32-1.36,0.75-1.92,1.29c-0.56,0.54-1,1.18-1.32,1.92c-0.32,0.74-0.48,1.53-0.48,2.37h-1.98c0-1.12,0.21-2.17,0.63-3.15
		s0.99-1.83,1.71-2.55c0.72-0.72,1.57-1.29,2.55-1.71C543.62,90.49,544.67,90.28,545.79,90.28z M551.37,105.34v-1.5
		c-0.6,0.24-1.34,0.52-2.22,0.84c-0.88,0.32-1.76,0.65-2.64,0.99c-0.88,0.34-1.68,0.65-2.4,0.93c-0.72,0.28-1.24,0.48-1.56,0.6
		c-0.76,0.28-1.5,0.7-2.22,1.26c-0.72,0.56-1.08,1.32-1.08,2.28v1.68c0,0.84,0.16,1.63,0.48,2.37c0.32,0.74,0.75,1.38,1.29,1.92
		s1.18,0.97,1.92,1.29s1.53,0.48,2.37,0.48s1.63-0.16,2.37-0.48c0.74-0.32,1.38-0.75,1.92-1.29s0.97-1.18,1.29-1.92
		c0.32-0.74,0.48-1.53,0.48-2.37V105.34z"/>
	<path class="st0" d="M570.21,90.28v1.98h-2.34c-0.84,0-1.62,0.16-2.34,0.48c-0.72,0.32-1.36,0.75-1.92,1.29
		c-0.56,0.54-1,1.18-1.32,1.92c-0.32,0.74-0.48,1.53-0.48,2.37v7.02v14.82h-1.98v-14.82v-7.02v-5.76h-1.98v-1.98h1.98h1.98v1.98
		v0.48c1.52-1.76,3.48-2.68,5.88-2.76H570.21z"/>
	<path class="st0" d="M591.09,90.58l-10.5,43.02h-2.04l3.12-12.96l-8.46-30.06h2.04l7.38,26.16l6.42-26.16H591.09z"/>
</g>
</svg>
