<?xml version="1.0" encoding="UTF-8" standalone="no"?><svg xmlns="http://www.w3.org/2000/svg" xmlns:xlink="http://www.w3.org/1999/xlink" contentScriptType="application/ecmascript" contentStyleType="text/css" height="496px" preserveAspectRatio="none" style="width:354px;height:496px;background:#FFFFFF;" version="1.1" viewBox="0 0 354 496" width="354px" zoomAndPan="magnify"><defs><filter height="300%" id="f159ywikcj7j7f" width="300%" x="-1" y="-1"><feGaussianBlur result="blurOut" stdDeviation="2.0"/><feColorMatrix in="blurOut" result="blurOut2" type="matrix" values="0 0 0 0 0 0 0 0 0 0 0 0 0 0 0 0 0 0 .4 0"/><feOffset dx="4.0" dy="4.0" in="blurOut2" result="blurOut3"/><feBlend in="SourceGraphic" in2="blurOut3" mode="normal"/></filter></defs><g><polygon fill="#FEFECE" filter="url(#f159ywikcj7j7f)" points="69,230,81,242,69,254,57,242,69,230" style="stroke:#A80036;stroke-width:1.5;"/><ellipse cx="114" cy="16" fill="#000000" filter="url(#f159ywikcj7j7f)" rx="10" ry="10" style="stroke:none;stroke-width:1.0;"/><g id="Development"><rect fill="#98FB98" filter="url(#f159ywikcj7j7f)" height="50.2656" rx="12.5" ry="12.5" style="stroke:#00FF7F;stroke-width:1.5;" width="119" x="221.5" y="103"/><line style="stroke:#00FF7F;stroke-width:1.5;" x1="221.5" x2="340.5" y1="129.2969" y2="129.2969"/><text fill="#000000" font-family="Segoe UI" font-size="14" lengthAdjust="spacing" textLength="99" x="231.5" y="120.9951">Development</text><text fill="#008B8B" font-family="Segoe UI" font-size="12" lengthAdjust="spacing" textLength="53" x="226.5" y="145.4355">Unstable</text></g><g id="Testing"><rect fill="#98FB98" filter="url(#f159ywikcj7j7f)" height="50.2656" rx="12.5" ry="12.5" style="stroke:#00FF7F;stroke-width:1.5;" width="124" x="7" y="331"/><line style="stroke:#00FF7F;stroke-width:1.5;" x1="7" x2="131" y1="357.2969" y2="357.2969"/><text fill="#000000" font-family="Segoe UI" font-size="14" lengthAdjust="spacing" textLength="54" x="42" y="348.9951">Testing</text><text fill="#008B8B" font-family="Segoe UI" font-size="12" lengthAdjust="spacing" textLength="104" x="12" y="373.4355">CI Tested (latest)</text></g><g id="Master"><rect fill="#98FB98" filter="url(#f159ywikcj7j7f)" height="50.2656" rx="12.5" ry="12.5" style="stroke:#00FF7F;stroke-width:1.5;" width="69" x="209.5" y="331"/><line style="stroke:#00FF7F;stroke-width:1.5;" x1="209.5" x2="278.5" y1="357.2969" y2="357.2969"/><text fill="#000000" font-family="Segoe UI" font-size="14" lengthAdjust="spacing" textLength="49" x="219.5" y="348.9951">Master</text><text fill="#008B8B" font-family="Segoe UI" font-size="12" lengthAdjust="spacing" textLength="38" x="214.5" y="373.4355">Stable</text></g><rect fill="#98FB98" filter="url(#f159ywikcj7j7f)" height="40" rx="12.5" ry="12.5" style="stroke:#00FF7F;stroke-width:1.5;" width="66" x="211" y="442"/><text fill="#000000" font-family="Segoe UI" font-size="14" lengthAdjust="spacing" textLength="56" x="216" y="466.8467">Release</text><!--MD5=[6e66c247e1e1891ed9fadf6a0353bff6]
link *start to Development--><path d="M122.055,22.306 C142.988,36.094 200.24,73.805 239.985,99.984 " fill="none" id="*start-to-Development" style="stroke:#2E8B57;stroke-width:1.0;"/><polygon fill="#2E8B57" points="244.258,102.798,238.9436,94.506,240.0829,100.047,234.5419,101.1862,244.258,102.798" style="stroke:#2E8B57;stroke-width:1.0;"/><text fill="#008B8B" font-family="Segoe UI" font-size="13" lengthAdjust="spacing" textLength="56" x="198" y="69.0669">commits</text><!--MD5=[759dc8eed6ca1adceab4d6c74714b45f]
link Development to merge_choice--><path d="M235.521,153.027 C186.066,179.154 110.179,219.245 81.0007,234.66 " fill="none" id="Development-to-merge_choice" style="stroke:#2E8B57;stroke-width:1.0;"/><polygon fill="#2E8B57" points="76.4199,237.08,86.2461,236.4129,80.8409,234.7445,82.5093,229.3393,76.4199,237.08" style="stroke:#2E8B57;stroke-width:1.0;"/><text fill="#008B8B" font-family="Segoe UI" font-size="13" lengthAdjust="spacing" textLength="111" x="176" y="196.0669">Pull-Request (PR)</text><!--MD5=[10f58f7395247672eef8b5225c73d3b7]
link merge_choice to Testing--><path d="M69,254.148 C69,270.609 69,301.991 69,325.396 " fill="none" id="merge_choice-to-Testing" style="stroke:#2E8B57;stroke-width:1.0;"/><polygon fill="#2E8B57" points="69,330.56,73,321.56,69,325.56,65,321.56,69,330.56" style="stroke:#2E8B57;stroke-width:1.0;"/><text fill="#008B8B" font-family="Segoe UI" font-size="13" lengthAdjust="spacing" textLength="101" x="70" y="297.0669">CI test (passed)</text><!--MD5=[2ba63a1552476556fbb2b4ab1696a9b0]
link *start to merge_choice--><path d="M107.468,23.859 C94.9247,37.562 67.8374,69.865 58,103 C44.8447,147.311 57.6634,202.929 64.8547,227.857 " fill="none" id="*start-to-merge_choice" style="stroke:#2E8B57;stroke-width:1.0;"/><polygon fill="#2E8B57" points="66.2925,232.695,67.5631,222.9284,64.8682,227.9021,59.8945,225.2073,66.2925,232.695" style="stroke:#2E8B57;stroke-width:1.0;"/><text fill="#008B8B" font-family="Segoe UI" font-size="13" lengthAdjust="spacing" textLength="144" x="59" y="132.5669">PR commits (external)</text><!--MD5=[473619c8ea3aea54b199253780714416]
link Testing to Master--><path d="M131.191,356 C155.566,356 182.808,356 204.414,356 " fill="none" id="Testing-to-Master" style="stroke:#2E8B57;stroke-width:1.0;"/><polygon fill="#2E8B57" points="209.497,356,200.497,352,204.497,356,200.497,360,209.497,356" style="stroke:#2E8B57;stroke-width:1.0;"/><text fill="#008B8B" font-family="Segoe UI" font-size="13" lengthAdjust="spacing" textLength="42" x="149.25" y="349.0669">merge</text><!--MD5=[2344bcc1718f146e79c188418c456f5a]
link Master to Release--><path d="M244,381.121 C244,397.87 244,420.0976 244,436.8523 " fill="none" id="Master-to-Release" style="stroke:#2E8B57;stroke-width:1.0;"/><polygon fill="#2E8B57" points="244,441.8642,248,432.8642,244,436.8642,240,432.8642,244,441.8642" style="stroke:#2E8B57;stroke-width:1.0;"/><!--MD5=[3f1cd0a3e62a3099f95451514c838d26]
@startuml
skinparam classFontSize 15
skinparam roundcorner 20
skinparam defaultFontName Segoe UI
skinparam defaultTextAlignment center
skinparam defaultFontColor DarkCyan
skinparam state {
BackgroundColor PaleGreen
ArrowColor SeaGreen
BorderColor SpringGreen
FontColor Black
TextAlignment center
}

state merge_choice <<choice>>

hide empty description
[*] - -> Development : commits
Development - -> merge_choice : Pull-Request (PR)
merge_choice - -> Testing : CI test (passed)
[*] - -> merge_choice : PR commits (external)
Development : Unstable
Testing : CI Tested (latest)
	
Testing -> Master : merge
Master: Stable
Master - -> Release
@enduml

PlantUML version 1.2021.10beta2(Unknown compile time)
(GPL source distribution)
Java Runtime: Java(TM) SE Runtime Environment
JVM: Java HotSpot(TM) 64-Bit Server VM
Default Encoding: UTF-8
Language: en
Country: US
--></g></svg>